<svg width="18" height="18" viewBox="0 0 18 18" fill="none" xmlns="http://www.w3.org/2000/svg">
<path d="M3.16663 8.99984H3.99996C4.92043 8.99984 5.66663 8.25364 5.66663 7.33317V6.49984C5.66663 5.57936 6.41282 4.83317 7.33329 4.83317C8.25377 4.83317 8.99996 5.57936 8.99996 6.49984V11.4998C8.99996 12.4203 9.74615 13.1665 10.6666 13.1665C11.5871 13.1665 12.3333 12.4203 12.3333 11.4998V10.6665C12.3333 9.74603 13.0795 8.99984 14 8.99984H14.8333M3.99996 17.3332H14C15.8409 17.3332 17.3333 15.8408 17.3333 13.9998V3.99984C17.3333 2.15889 15.8409 0.666504 14 0.666504H3.99996C2.15901 0.666504 0.666626 2.15889 0.666626 3.99984V13.9998C0.666626 15.8408 2.15901 17.3332 3.99996 17.3332Z" stroke="white" stroke-width="1.25" stroke-linecap="round"/>
</svg>
