<svg width="20" height="20" viewBox="0 0 20 20" fill="none" xmlns="http://www.w3.org/2000/svg">
<path d="M4.16675 10.0001H5.00008C5.92056 10.0001 6.66675 9.25389 6.66675 8.33341V7.50008C6.66675 6.57961 7.41294 5.83341 8.33341 5.83341C9.25389 5.83341 10.0001 6.57961 10.0001 7.50008V12.5001C10.0001 13.4206 10.7463 14.1667 11.6667 14.1667C12.5872 14.1667 13.3334 13.4206 13.3334 12.5001V11.6667C13.3334 10.7463 14.0796 10.0001 15.0001 10.0001H15.8334M5.00008 18.3334H15.0001C16.841 18.3334 18.3334 16.841 18.3334 15.0001V5.00008C18.3334 3.15913 16.841 1.66675 15.0001 1.66675H5.00008C3.15913 1.66675 1.66675 3.15913 1.66675 5.00008V15.0001C1.66675 16.841 3.15913 18.3334 5.00008 18.3334Z" stroke="#999999" stroke-width="1.25" stroke-linecap="round"/>
</svg>
