<svg width="20" height="20" viewBox="0 0 20 20" fill="none" xmlns="http://www.w3.org/2000/svg">
<path d="M18.3334 8.33268V14.9993C18.3334 16.8403 16.841 18.3327 15 18.3327H5.00002C3.15907 18.3327 1.66669 16.8403 1.66669 14.9993V8.33268M18.3334 8.33268C18.3334 6.49173 16.841 4.99935 15 4.99935H5.00002C3.15907 4.99935 1.66669 6.49173 1.66669 8.33268M18.3334 8.33268C18.3334 8.33268 15.6978 10.6366 10 10.4836C4.3022 10.3306 1.66669 8.33268 1.66669 8.33268M6.66669 4.99935V4.16602C6.66669 2.7853 7.78598 1.66602 9.16669 1.66602H10.8334C12.2141 1.66602 13.3334 2.7853 13.3334 4.16602V4.99935M6.66669 8.89662V11.3966M13.3334 8.89662V11.3966" stroke="#999999" stroke-width="1.25" stroke-linecap="round"/>
</svg>
