<svg width="20" height="20" viewBox="0 0 20 20" fill="none" xmlns="http://www.w3.org/2000/svg">
<path d="M18.3333 8.33268V14.9993C18.3333 16.8403 16.8409 18.3327 15 18.3327H4.99996C3.15901 18.3327 1.66663 16.8403 1.66663 14.9993V8.33268M18.3333 8.33268C18.3333 6.49173 16.8409 4.99935 15 4.99935H4.99996C3.15901 4.99935 1.66663 6.49173 1.66663 8.33268M18.3333 8.33268C18.3333 8.33268 15.6978 10.6366 9.99996 10.4836C4.30214 10.3306 1.66663 8.33268 1.66663 8.33268M6.66663 4.99935V4.16602C6.66663 2.7853 7.78591 1.66602 9.16663 1.66602H10.8333C12.214 1.66602 13.3333 2.7853 13.3333 4.16602V4.99935M6.66663 8.89662V11.3966M13.3333 8.89662V11.3966" stroke="#1A1A1A" stroke-width="1.25" stroke-linecap="round"/>
</svg>
