<svg width="16" height="17" viewBox="0 0 16 17" fill="none" xmlns="http://www.w3.org/2000/svg">
<path fill-rule="evenodd" clip-rule="evenodd" d="M8.58333 0.875C8.23815 0.875 7.95833 1.15482 7.95833 1.5C7.95833 1.84518 8.23815 2.125 8.58333 2.125C9.37674 2.125 10.1624 2.28127 10.8954 2.58489C11.6284 2.88852 12.2944 3.33354 12.8554 3.89456C13.4165 4.45558 13.8615 5.12161 14.1651 5.85462C14.4687 6.58763 14.625 7.37326 14.625 8.16667C14.625 8.51184 14.9048 8.79167 15.25 8.79167C15.5952 8.79167 15.875 8.51184 15.875 8.16667C15.875 7.20911 15.6864 6.26093 15.32 5.37627C14.9535 4.4916 14.4164 3.68777 13.7393 3.01068C13.0622 2.33359 12.2584 1.79649 11.3737 1.43005C10.4891 1.0636 9.54089 0.875 8.58333 0.875ZM15.25 14.8333V13.4617C15.25 12.7802 14.8351 12.1674 14.2023 11.9143L12.5072 11.2362C11.7024 10.9143 10.7852 11.263 10.3975 12.0383L10.25 12.3333C10.25 12.3333 8.16667 11.9167 6.5 10.25C4.83333 8.58333 4.41667 6.5 4.41667 6.5L4.71168 6.35249C5.48698 5.96484 5.83571 5.04761 5.51379 4.2428L4.83574 2.54768C4.58263 1.91492 3.96979 1.5 3.28828 1.5H1.91667C0.996192 1.5 0.25 2.24619 0.25 3.16667C0.25 10.5305 6.21954 16.5 13.5833 16.5C14.5038 16.5 15.25 15.7538 15.25 14.8333ZM7.95833 4.83333C7.95833 4.48816 8.23815 4.20833 8.58333 4.20833C9.10315 4.20833 9.61788 4.31072 10.0981 4.50964C10.5784 4.70857 11.0147 5.00014 11.3823 5.3677C11.7499 5.73527 12.0414 6.17163 12.2404 6.65188C12.4393 7.13213 12.5417 7.64685 12.5417 8.16667C12.5417 8.51185 12.2618 8.79167 11.9167 8.79167C11.5715 8.79167 11.2917 8.51185 11.2917 8.16667C11.2917 7.811 11.2216 7.45882 11.0855 7.13023C10.9494 6.80164 10.7499 6.50308 10.4984 6.25159C10.2469 6.00009 9.94836 5.8006 9.61977 5.66449C9.29118 5.52839 8.939 5.45833 8.58333 5.45833C8.23815 5.45833 7.95833 5.17851 7.95833 4.83333Z" fill="white"/>
</svg>
