<svg width="37" height="37" viewBox="0 0 37 37" fill="none" xmlns="http://www.w3.org/2000/svg">
<rect x="0.684204" y="0.684082" width="36" height="36" rx="18" fill="#2AA232"/>
<path fill-rule="evenodd" clip-rule="evenodd" d="M15.6894 11.9262L14.5175 13.6841H13.6842C11.8432 13.6841 10.3509 15.1765 10.3509 17.0174V22.8507C10.3509 24.6917 11.8432 26.1841 13.6842 26.1841H23.6842C25.5251 26.1841 27.0175 24.6917 27.0175 22.8507V17.0174C27.0175 15.1765 25.5251 13.6841 23.6842 13.6841H22.8509L21.679 11.9262C21.3699 11.4626 20.8495 11.1841 20.2922 11.1841H17.0762C16.5189 11.1841 15.9985 11.4626 15.6894 11.9262ZM21.1842 19.9341C21.1842 21.3148 20.0649 22.4341 18.6842 22.4341C17.3035 22.4341 16.1842 21.3148 16.1842 19.9341C16.1842 18.5534 17.3035 17.4341 18.6842 17.4341C20.0649 17.4341 21.1842 18.5534 21.1842 19.9341ZM18.6842 14.5174C19.1444 14.5174 19.5175 14.1443 19.5175 13.6841C19.5175 13.2238 19.1444 12.8507 18.6842 12.8507C18.224 12.8507 17.8509 13.2238 17.8509 13.6841C17.8509 14.1443 18.224 14.5174 18.6842 14.5174Z" fill="white"/>
</svg>
