<svg width="80" height="80" viewBox="0 0 80 80" fill="none" xmlns="http://www.w3.org/2000/svg">
<path d="M31.5247 25.5082H20.451C18.8461 25.5082 17.5399 26.8144 17.5399 28.4193V39.493C17.5399 41.0979 18.8461 42.4024 20.451 42.4024H31.5247C33.1296 42.4024 34.4358 41.0962 34.4358 39.493V28.4193C34.4358 26.8144 33.1296 25.5082 31.5247 25.5082ZM32.4441 39.493C32.4441 39.9992 32.0325 40.4108 31.5247 40.4108H20.451C19.9448 40.4108 19.5315 39.9992 19.5315 39.493V28.4193C19.5315 27.9131 19.9432 27.4998 20.451 27.4998H31.5247C32.0309 27.4998 32.4441 27.9115 32.4441 28.4193V39.493ZM38.7029 31.5197C38.7029 30.9703 39.1494 30.5238 39.6988 30.5238H51.5724C52.1217 30.5238 52.5682 30.9703 52.5682 31.5197C52.5682 32.069 52.1217 32.5155 51.5724 32.5155H39.6988C39.1477 32.5155 38.7029 32.069 38.7029 31.5197ZM38.7029 37.6805C38.7029 37.1312 39.1494 36.6847 39.6988 36.6847H53.4976C54.047 36.6847 54.4935 37.1312 54.4935 37.6805C54.4935 38.2299 54.047 38.6764 53.4976 38.6764H39.6988C39.1477 38.6764 38.7029 38.2316 38.7029 37.6805ZM31.1579 30.4077C31.5462 30.796 31.5462 31.4267 31.1579 31.8168L25.4683 37.5063C25.2825 37.6922 25.0285 37.7984 24.7646 37.7984C24.5007 37.7984 24.2468 37.6938 24.0609 37.5063L20.8178 34.2632C20.4294 33.8748 20.4294 33.2441 20.8178 32.8541C21.2062 32.4657 21.8369 32.4657 22.2269 32.8541L24.7663 35.3935L29.7504 30.4093C30.1388 30.0176 30.7695 30.0176 31.1579 30.4077ZM31.5247 45.692H20.451C18.8461 45.692 17.5399 46.9982 17.5399 48.6015V59.6751C17.5399 61.2801 18.8461 62.5863 20.451 62.5863H31.5247C33.1296 62.5863 34.4358 61.2801 34.4358 59.6751V48.6015C34.4358 46.9982 33.1296 45.692 31.5247 45.692ZM32.4441 59.6768C32.4441 60.183 32.0325 60.5963 31.5247 60.5963H20.451C19.9448 60.5963 19.5315 60.1846 19.5315 59.6768V48.6031C19.5315 48.0969 19.9432 47.6853 20.451 47.6853H31.5247C32.0309 47.6853 32.4441 48.0969 32.4441 48.6031V59.6768ZM38.7029 51.7035C38.7029 51.1541 39.1494 50.7077 39.6988 50.7077H51.4164C51.9657 50.7077 52.4122 51.1541 52.4122 51.7035C52.4122 52.2529 51.9657 52.6993 51.4164 52.6993H39.6988C39.1477 52.6993 38.7029 52.2529 38.7029 51.7035ZM59.7133 57.8644C59.7133 58.4137 59.2668 58.8602 58.7174 58.8602H39.6988C39.1494 58.8602 38.7029 58.4137 38.7029 57.8644C38.7029 57.315 39.1494 56.8685 39.6988 56.8685H58.7174C59.2668 56.8685 59.7133 57.315 59.7133 57.8644ZM31.1579 50.5915C31.5462 50.9799 31.5462 51.6105 31.1579 52.0006L25.4683 57.6901C25.2742 57.8843 25.0186 57.9822 24.7646 57.9822C24.5107 57.9822 24.2551 57.8843 24.0609 57.6901L20.8178 54.447C20.4294 54.0586 20.4294 53.4279 20.8178 53.0379C21.2062 52.6495 21.8369 52.6495 22.2269 53.0379L24.7663 55.5773L29.7504 50.5931C30.1388 50.2014 30.7695 50.2014 31.1579 50.5915ZM31.5247 5.32437H20.451C18.8461 5.32437 17.5399 6.63057 17.5399 8.23385V19.3075C17.5399 20.9124 18.8461 22.2186 20.451 22.2186H31.5247C33.1296 22.2186 34.4358 20.9124 34.4358 19.3075V8.23551C34.4358 6.63057 33.1296 5.32437 31.5247 5.32437ZM32.4441 19.3091C32.4441 19.8154 32.0325 20.2286 31.5247 20.2286H20.451C19.9448 20.2286 19.5315 19.817 19.5315 19.3091V8.23551C19.5315 7.7293 19.9432 7.31769 20.451 7.31769H31.5247C32.0309 7.31769 32.4441 7.7293 32.4441 8.23551V19.3091ZM38.7029 11.3359C38.7029 10.7865 39.1494 10.34 39.6988 10.34H58.7174C59.2668 10.34 59.7133 10.7865 59.7133 11.3359C59.7133 11.8852 59.2668 12.3317 58.7174 12.3317H39.6988C39.1477 12.3317 38.7029 11.8852 38.7029 11.3359ZM38.7029 17.4967C38.7029 16.9474 39.1494 16.5009 39.6988 16.5009H56.2013C56.7507 16.5009 57.1972 16.9474 57.1972 17.4967C57.1972 18.0461 56.7507 18.4926 56.2013 18.4926H39.6988C39.1477 18.4926 38.7029 18.0478 38.7029 17.4967ZM31.1579 10.2239C31.5462 10.6122 31.5462 11.2429 31.1579 11.633L25.4683 17.3225C25.2742 17.5166 25.0186 17.6146 24.7646 17.6146C24.5107 17.6146 24.2551 17.5166 24.0609 17.3225L20.8178 14.0761C20.4294 13.6877 20.4294 13.057 20.8178 12.667C21.2062 12.2786 21.8369 12.2786 22.2269 12.667L24.7663 15.2063L29.7504 10.2222C30.1388 9.83382 30.7695 9.83382 31.1579 10.2239ZM58.5233 29.377C58.5233 33.4499 61.8377 36.7644 65.9107 36.7644C69.9836 36.7644 73.2981 33.4499 73.2981 29.377C73.2981 25.304 69.9836 21.9896 65.9107 21.9896C61.8377 21.9896 58.5233 25.304 58.5233 29.377ZM71.3064 29.377C71.3064 32.3529 68.8865 34.7727 65.9107 34.7727C62.9348 34.7727 60.5149 32.3529 60.5149 29.377C60.5149 26.4011 62.9348 23.9812 65.9107 23.9812C68.8865 23.9812 71.3064 26.4028 71.3064 29.377ZM65.192 29.6409L67.8293 27.0036C68.2177 26.6152 68.8484 26.6152 69.2367 27.0036C69.6251 27.392 69.6251 28.0227 69.2367 28.4127L65.8957 31.7537C65.7098 31.9396 65.4559 32.0458 65.192 32.0458C64.9281 32.0458 64.6742 31.9412 64.4883 31.7537L62.5829 29.8483C62.1946 29.46 62.1946 28.8293 62.5829 28.4409C62.9713 28.0525 63.602 28.0525 63.992 28.4409L65.192 29.6409ZM79.1154 47.5791L75.0441 36.6648L75.1005 36.3644L76.4582 35.9345C77.4391 35.6242 78 34.6018 77.7345 33.6076L77.2216 31.684L78.2589 30.7081C79.0091 30.0027 79.0706 28.8392 78.4 28.0575L77.1021 26.5472L77.6133 25.2177C77.9818 24.2568 77.5337 23.1813 76.5909 22.7697L74.7669 21.9713L74.6507 20.5523C74.5661 19.5266 73.6864 18.7498 72.6674 18.7897L70.6774 18.8627L69.9571 17.6345C69.4359 16.7465 68.3156 16.4279 67.4044 16.9075L66.8783 17.1847V6.63555C66.8783 2.97753 63.9024 0 60.2427 0H6.92434C3.10699 0 0 3.10533 0 6.92434V12.8528C0 13.4022 0.446464 13.8487 0.99583 13.8487H11.8554V67.2766V73.1404C11.8554 76.9229 14.9325 80 18.715 80H66.938C70.7205 80 73.7976 76.9229 73.7976 73.1404V67.2766C73.7976 66.7272 73.3512 66.2808 72.8018 66.2808H66.8783V50.218V42.6663V41.39L67.3613 41.7137C67.3762 41.7236 67.3928 41.7319 67.4077 41.7419L70.9529 50.7326C71.0923 51.0861 71.4209 51.3301 71.7993 51.3599C71.8259 51.3616 71.8524 51.3632 71.879 51.3632C72.2275 51.3632 72.5545 51.179 72.7354 50.8753L74.4947 47.9144L77.9104 48.8853C78.2706 48.9882 78.6589 48.8787 78.9145 48.6031C79.1685 48.326 79.2465 47.931 79.1154 47.5791ZM68.2724 18.7L68.9795 19.9066C69.343 20.5257 69.9853 20.8792 70.7056 20.8543L72.6707 20.783L72.7852 22.1771C72.8433 22.8925 73.2715 23.4916 73.9304 23.7804L75.7312 24.5688L75.23 25.875C74.9727 26.5455 75.0972 27.2708 75.5652 27.8152L76.8465 29.3056L75.8275 30.2633C75.3047 30.7562 75.1022 31.4632 75.2881 32.157L75.7943 34.0557L74.4615 34.4773C73.7777 34.6931 73.2881 35.2441 73.1537 35.9495L72.7869 37.8814L71.4027 37.6822C70.6923 37.581 70.0118 37.8631 69.5853 38.4407L68.4168 40.0207L67.255 39.2407C66.6592 38.8407 65.9239 38.8009 65.2883 39.1361L63.5489 40.0523L62.8418 38.8457C62.4916 38.2482 61.8775 37.8963 61.1904 37.8963C61.1655 37.8963 61.1406 37.8963 61.1157 37.898L59.1506 37.9693L59.0361 36.5752C58.978 35.8598 58.5498 35.2607 57.8909 34.9719L56.0901 34.1835L56.593 32.8773C56.8503 32.2068 56.7258 31.4815 56.2578 30.9371L54.9764 29.4467L55.9955 28.489C56.5183 27.9978 56.7208 27.2891 56.5349 26.5953L56.0271 24.6966L57.3615 24.275C58.0453 24.0592 58.5349 23.5082 58.6693 22.8028L59.0361 20.8709L60.4203 21.0701C61.1307 21.1713 61.8095 20.8892 62.2377 20.3116L63.4062 18.7316L64.568 19.5116C65.1638 19.9116 65.899 19.9515 66.5347 19.6162L68.2724 18.7ZM57.7996 39.4714C58.1581 39.795 58.6378 39.9842 59.154 39.966L61.144 39.8929L61.8643 41.1211C61.9738 41.3087 62.1132 41.468 62.2692 41.6025L59.7033 48.1102L58.5913 46.2364C58.3606 45.848 57.8976 45.6638 57.4627 45.7866L55.2038 46.4289L57.7996 39.4714ZM1.99166 6.92434C1.99166 4.20406 4.20406 1.99166 6.92434 1.99166C9.64461 1.99166 11.857 4.20406 11.857 6.92434V11.857H1.99166V6.92434ZM71.806 73.1387C71.806 75.8225 69.6218 78.0067 66.938 78.0067H23.5431C24.7978 76.7635 25.5746 75.0408 25.5746 73.1387V68.2708H71.806V73.1387ZM24.5787 66.2791C24.0294 66.2791 23.5829 66.7256 23.5829 67.2749V73.1387C23.5829 75.8225 21.3987 78.0067 18.715 78.0067C16.0312 78.0067 13.847 75.8225 13.847 73.1387V67.2749V12.8512V6.92434C13.847 4.99575 13.0537 3.24972 11.7757 1.99166H60.2411C62.802 1.99166 64.885 4.0746 64.885 6.63555V17.3291L64.4584 17.042C63.6037 16.4677 62.4551 16.6669 61.8444 17.4951L60.661 19.0967L59.2502 18.8942C58.2312 18.7482 57.2835 19.4253 57.0909 20.4361L56.7192 22.3929L55.3615 22.8228C54.3806 23.1331 53.8196 24.1539 54.0852 25.1497L54.5997 27.0733L53.5624 28.0492C52.8138 28.7546 52.7508 29.9181 53.4213 30.6998L54.7192 32.2101L54.208 33.5396C53.8395 34.5005 54.2877 35.576 55.2304 35.9876L56.7291 36.6432L52.6495 47.5808C52.5184 47.9326 52.5964 48.3276 52.8504 48.6048C53.1043 48.8803 53.4943 48.9898 53.8545 48.8869L57.2702 47.916L59.0295 50.877C59.2104 51.1807 59.5357 51.3649 59.8859 51.3649C59.9124 51.3649 59.939 51.3632 59.9656 51.3616C60.344 51.3317 60.6726 51.0877 60.812 50.7342L64.2924 41.9078C64.3339 41.8896 64.3771 41.873 64.4169 41.8514L64.8866 41.6041V42.6697V50.2214V66.2841H24.5787V66.2791ZM74.3022 45.7883C73.8673 45.6638 73.4043 45.8497 73.1736 46.238L72.0616 48.1119L69.5305 41.6954C69.6965 41.5792 69.8492 41.4348 69.977 41.2622L71.1603 39.6606L72.5711 39.8631C73.0889 39.9378 73.5885 39.7983 73.9802 39.5096L76.5611 46.4306L74.3022 45.7883Z" fill="#178275"/>
</svg>
