<svg width="18" height="18" viewBox="0 0 18 18" fill="none" xmlns="http://www.w3.org/2000/svg">
<path d="M16.2866 12.1005L15.7536 11.7741H15.7536L16.2866 12.1005ZM15.4911 13.3995L16.0241 13.7259V13.7259L15.4911 13.3995ZM1.71341 5.89951L1.1804 5.57313L1.1804 5.57313L1.71341 5.89951ZM2.50887 4.60048L3.04188 4.92686V4.92686L2.50887 4.60048ZM4.6821 4.05144L4.98091 3.5025L4.98091 3.5025L4.6821 4.05144ZM2.29572 7.94855L1.99691 8.49749H1.99691L2.29572 7.94855ZM13.3179 13.9486L13.0191 14.4975H13.0191L13.3179 13.9486ZM15.7043 10.0514L15.4055 10.6004L15.4055 10.6004L15.7043 10.0514ZM2.50887 13.3995L1.97586 13.7259H1.97586L2.50887 13.3995ZM1.71341 12.1005L2.24642 11.7741H2.24642L1.71341 12.1005ZM15.4911 4.60049L16.0241 4.2741V4.2741L15.4911 4.60049ZM16.2866 5.89952L15.7536 6.22591L15.7536 6.22591L16.2866 5.89952ZM15.7043 7.94856L16.0031 8.4975L16.0031 8.4975L15.7043 7.94856ZM13.3179 4.05145L13.6167 4.60039L13.3179 4.05145ZM2.29572 10.0514L2.59454 10.6004H2.59454L2.29572 10.0514ZM4.6821 13.9486L4.38328 13.3996L4.38328 13.3996L4.6821 13.9486ZM13.2333 4.09748L12.9345 3.54854V3.54854L13.2333 4.09748ZM4.76667 4.09747L4.46785 4.64641L4.46785 4.64641L4.76667 4.09747ZM13.2333 13.9025L13.5322 13.3536L13.5322 13.3536L13.2333 13.9025ZM4.76667 13.9025L5.06548 14.4515L5.06548 14.4515L4.76667 13.9025ZM8.20454 2.125H9.79546V0.875H8.20454V2.125ZM9.79546 15.875H8.20454V17.125H9.79546V15.875ZM8.20454 15.875C7.63592 15.875 7.23863 15.4491 7.23863 15H5.98863C5.98863 16.2077 7.01588 17.125 8.20454 17.125V15.875ZM10.7614 15C10.7614 15.4491 10.3641 15.875 9.79546 15.875V17.125C10.9841 17.125 12.0114 16.2077 12.0114 15H10.7614ZM9.79546 2.125C10.3641 2.125 10.7614 2.55089 10.7614 3H12.0114C12.0114 1.79225 10.9841 0.875 9.79546 0.875V2.125ZM8.20454 0.875C7.01588 0.875 5.98863 1.79226 5.98863 3H7.23863C7.23863 2.55089 7.63592 2.125 8.20454 2.125V0.875ZM15.7536 11.7741L14.9581 13.0731L16.0241 13.7259L16.8196 12.4269L15.7536 11.7741ZM2.24642 6.2259L3.04188 4.92686L1.97586 4.27409L1.1804 5.57313L2.24642 6.2259ZM3.04188 4.92686C3.29907 4.50684 3.90046 4.33755 4.38328 4.60038L4.98091 3.5025C3.94189 2.9369 2.5973 3.25924 1.97586 4.27409L3.04188 4.92686ZM2.59454 7.39961C2.13122 7.1474 2.00358 6.62247 2.24642 6.2259L1.1804 5.57313C0.544598 6.61144 0.938385 7.92128 1.99691 8.49749L2.59454 7.39961ZM14.9581 13.0731C14.7009 13.4932 14.0995 13.6624 13.6167 13.3996L13.0191 14.4975C14.0581 15.0631 15.4027 14.7408 16.0241 13.7259L14.9581 13.0731ZM16.8196 12.4269C17.4554 11.3886 17.0616 10.0787 16.0031 9.5025L15.4055 10.6004C15.8688 10.8526 15.9964 11.3775 15.7536 11.7741L16.8196 12.4269ZM3.04187 13.0731L2.24642 11.7741L1.1804 12.4269L1.97586 13.7259L3.04187 13.0731ZM14.9581 4.92687L15.7536 6.22591L16.8196 5.57314L16.0241 4.2741L14.9581 4.92687ZM15.7536 6.22591C15.9964 6.62248 15.8688 7.14741 15.4055 7.39962L16.0031 8.4975C17.0616 7.92129 17.4554 6.61145 16.8196 5.57314L15.7536 6.22591ZM13.6167 4.60039C14.0995 4.33756 14.7009 4.50685 14.9581 4.92687L16.0241 4.2741C15.4027 3.25925 14.0581 2.93691 13.0191 3.50251L13.6167 4.60039ZM2.24642 11.7741C2.00358 11.3775 2.13122 10.8526 2.59454 10.6004L1.99691 9.50251C0.938383 10.0787 0.544597 11.3886 1.1804 12.4269L2.24642 11.7741ZM1.97586 13.7259C2.5973 14.7408 3.94189 15.0631 4.98091 14.4975L4.38328 13.3996C3.90045 13.6625 3.29907 13.4932 3.04187 13.0731L1.97586 13.7259ZM13.5322 4.64642L13.6167 4.60039L13.0191 3.50251L12.9345 3.54854L13.5322 4.64642ZM4.38328 4.60037L4.46785 4.64641L5.06549 3.54854L4.98091 3.5025L4.38328 4.60037ZM13.6167 13.3996L13.5322 13.3536L12.9345 14.4515L13.0191 14.4975L13.6167 13.3996ZM4.46785 13.3536L4.38328 13.3996L4.98091 14.4975L5.06548 14.4515L4.46785 13.3536ZM1.99691 8.49749C2.39503 8.71421 2.39503 9.28579 1.9969 9.50251L2.59454 10.6004C3.86248 9.91017 3.86249 8.08983 2.59454 7.39961L1.99691 8.49749ZM5.06548 14.4515C5.48165 14.2249 5.98863 14.5262 5.98863 15H7.23863C7.23863 13.5778 5.71696 12.6736 4.46785 13.3536L5.06548 14.4515ZM12.0114 15C12.0114 14.5262 12.5184 14.2249 12.9345 14.4515L13.5322 13.3536C12.283 12.6736 10.7614 13.5778 10.7614 15H12.0114ZM16.0031 9.5025C15.605 9.28578 15.605 8.71422 16.0031 8.4975L15.4055 7.39962C14.1375 8.08983 14.1375 9.91016 15.4055 10.6004L16.0031 9.5025ZM4.46785 4.64641C5.71696 5.32637 7.23863 4.42219 7.23863 3H5.98863C5.98863 3.47383 5.48165 3.77508 5.06549 3.54854L4.46785 4.64641ZM12.9345 3.54854C12.5184 3.77509 12.0114 3.47384 12.0114 3H10.7614C10.7614 4.42219 12.283 5.32638 13.5322 4.64642L12.9345 3.54854ZM10.875 9C10.875 10.0355 10.0355 10.875 9.00001 10.875V12.125C10.7259 12.125 12.125 10.7259 12.125 9H10.875ZM9.00001 10.875C7.96447 10.875 7.12501 10.0355 7.12501 9H5.87501C5.87501 10.7259 7.27412 12.125 9.00001 12.125V10.875ZM7.12501 9C7.12501 7.96447 7.96447 7.125 9.00001 7.125V5.875C7.27412 5.875 5.87501 7.27411 5.87501 9H7.12501ZM9.00001 7.125C10.0355 7.125 10.875 7.96447 10.875 9H12.125C12.125 7.27411 10.7259 5.875 9.00001 5.875V7.125Z" fill="#999999"/>
</svg>
