<svg width="18" height="18" viewBox="0 0 18 18" fill="none" xmlns="http://www.w3.org/2000/svg">
<path d="M15.104 7.125V6.1875C15.104 4.6342 13.892 3.375 12.397 3.375H9.60227C9.12065 3.375 8.64775 3.2415 8.23235 2.98827L6.42543 1.88673C6.01003 1.6335 5.53713 1.5 5.05551 1.5H3.37368C1.87865 1.5 0.666687 2.7592 0.666687 4.3125V13.6875C0.666687 15.2408 1.87865 16.5 3.37368 16.5H11.2557C12.5236 16.5 13.6984 15.8089 14.3507 14.6794L17.0734 9.96468C17.7951 8.71495 16.9287 7.125 15.5259 7.125H15.104ZM15.104 7.125H7.52393C6.09757 7.125 4.805 7.99775 4.2257 9.35198L1.56902 15.5625" stroke="#999999" stroke-width="1.25" stroke-linecap="round" stroke-linejoin="round"/>
</svg>
