<svg width="18" height="16" viewBox="0 0 18 16" fill="none" xmlns="http://www.w3.org/2000/svg">
<path fill-rule="evenodd" clip-rule="evenodd" d="M0.666687 3.3125V12.6875C0.666687 12.8724 0.683861 13.0531 0.716643 13.2281L3.07905 7.85423C3.84806 6.06301 5.57844 4.875 7.52392 4.875H15.0874C14.9378 3.46877 13.7903 2.375 12.397 2.375H9.60227C9.12064 2.375 8.64775 2.2415 8.23235 1.98827L6.42543 0.886734C6.01003 0.633502 5.53713 0.5 5.05551 0.5H3.37367C1.87865 0.5 0.666687 1.7592 0.666687 3.3125ZM7.52389 6.125H15.1039H15.5259C16.9286 6.125 17.7951 7.71495 17.0733 8.96468L14.3507 13.6794C13.6984 14.8089 12.5235 15.5 11.2557 15.5H3.37363C2.62121 15.5 1.94048 15.181 1.44987 14.6662L4.22566 8.35198C4.80496 6.99775 6.09753 6.125 7.52389 6.125Z" fill="white"/>
</svg>
