<svg width="26" height="26" viewBox="0 0 26 26" fill="none" xmlns="http://www.w3.org/2000/svg">
<path d="M21.0525 18.995L19.77 17.15C19.5949 16.8992 19.5007 16.6009 19.5 16.295V11C19.5 9.01088 18.7098 7.10322 17.3033 5.6967C15.8968 4.29018 13.9891 3.5 12 3.5C10.0109 3.5 8.10322 4.29018 6.6967 5.6967C5.29017 7.10322 4.5 9.01088 4.5 11V16.295C4.49927 16.6009 4.40506 16.8992 4.23 17.15L2.9475 18.995C2.75331 19.2102 2.62561 19.477 2.57985 19.7632C2.53409 20.0494 2.57222 20.3427 2.68964 20.6077C2.80706 20.8727 2.99873 21.098 3.24148 21.2563C3.48423 21.4147 3.76766 21.4993 4.0575 21.5H8.325C8.49713 22.3477 8.95705 23.1099 9.6268 23.6573C10.2966 24.2047 11.135 24.5038 12 24.5038C12.865 24.5038 13.7034 24.2047 14.3732 23.6573C15.043 23.1099 15.5029 22.3477 15.675 21.5H19.9425C20.2323 21.4993 20.5158 21.4147 20.7585 21.2563C21.0013 21.098 21.1929 20.8727 21.3104 20.6077C21.4278 20.3427 21.4659 20.0494 21.4201 19.7632C21.3744 19.477 21.2467 19.2102 21.0525 18.995ZM12 23C11.5358 22.9987 11.0833 22.8538 10.7047 22.5853C10.3261 22.3168 10.0397 21.9377 9.885 21.5H14.115C13.9603 21.9377 13.6739 22.3168 13.2953 22.5853C12.9166 22.8538 12.4642 22.9987 12 23ZM4.0575 20C4.0914 19.9685 4.12159 19.9333 4.1475 19.895L5.46 18.005C5.81013 17.5034 5.99855 16.9067 6 16.295V11C6 9.4087 6.63214 7.88258 7.75736 6.75736C8.88258 5.63214 10.4087 5 12 5C13.5913 5 15.1174 5.63214 16.2426 6.75736C17.3679 7.88258 18 9.4087 18 11V16.295C18.0014 16.9067 18.1899 17.5034 18.54 18.005L19.8525 19.895C19.8784 19.9333 19.9086 19.9685 19.9425 20H4.0575Z" fill="#1A1A1A"/>
<rect x="15" y="1" width="10" height="10" rx="5" fill="#E03137"/>
<rect x="15" y="1" width="10" height="10" rx="5" stroke="#FDCACA" stroke-width="2"/>
</svg>
