<svg width="16" height="18" viewBox="0 0 16 18" fill="none" xmlns="http://www.w3.org/2000/svg">
<path fill-rule="evenodd" clip-rule="evenodd" d="M15.5 7.45845V13.9722C15.5 15.8284 14.0076 17.3332 12.1667 17.3332H3.83333C1.99238 17.3332 0.5 15.8284 0.5 13.9722V7.45845C0.5 6.44931 0.949704 5.49359 1.72488 4.85527L5.89155 1.42429C7.11859 0.413909 8.88141 0.413907 10.1084 1.42429L14.2751 4.85527C15.0503 5.49358 15.5 6.44931 15.5 7.45845ZM6.33333 13.3748C5.98816 13.3748 5.70833 13.6547 5.70833 13.9998C5.70833 14.345 5.98816 14.6248 6.33333 14.6248H9.66667C10.0118 14.6248 10.2917 14.345 10.2917 13.9998C10.2917 13.6547 10.0118 13.3748 9.66667 13.3748H6.33333Z" fill="white"/>
</svg>
