<svg width="6" height="6" viewBox="0 0 6 6" fill="none" xmlns="http://www.w3.org/2000/svg">
<path d="M2.668 5.768C2.21067 5.768 1.79067 5.66067 1.408 5.446C1.02533 5.222 0.717333 4.92333 0.484 4.55C0.250667 4.17667 0.134 3.75667 0.134 3.29C0.134 2.86067 0.241333 2.45933 0.456 2.086C0.68 1.70333 0.983333 1.39533 1.366 1.162C1.74867 0.919333 2.18267 0.798 2.668 0.798C3.116 0.798 3.53133 0.905333 3.914 1.12C4.306 1.33467 4.61867 1.63333 4.852 2.016C5.08533 2.38933 5.202 2.814 5.202 3.29C5.202 3.74733 5.08533 4.16267 4.852 4.536C4.628 4.90933 4.32467 5.208 3.942 5.432C3.55933 5.656 3.13467 5.768 2.668 5.768Z" fill="white" style="fill:white;fill-opacity:1;"/>
</svg>
