<svg width="6" height="6" viewBox="0 0 6 6" fill="none" xmlns="http://www.w3.org/2000/svg">
<path d="M2.668 5.16741C2.21067 5.16741 1.79067 5.06008 1.408 4.84541C1.02533 4.62141 0.717333 4.32275 0.484 3.94941C0.250667 3.57608 0.134 3.15608 0.134 2.68941C0.134 2.26008 0.241333 1.85875 0.456 1.48541C0.68 1.10275 0.983333 0.794747 1.366 0.561414C1.74867 0.318747 2.18267 0.197414 2.668 0.197414C3.116 0.197414 3.53133 0.304747 3.914 0.519414C4.306 0.734081 4.61867 1.03275 4.852 1.41541C5.08533 1.78875 5.202 2.21341 5.202 2.68941C5.202 3.14675 5.08533 3.56208 4.852 3.93541C4.628 4.30875 4.32467 4.60741 3.942 4.83141C3.55933 5.05541 3.13467 5.16741 2.668 5.16741Z" fill="#5B7492" style="fill:#5B7492;fill:color(display-p3 0.3569 0.4549 0.5725);fill-opacity:1;"/>
</svg>
