<svg width="20" height="20" viewBox="0 0 20 20" fill="none" xmlns="http://www.w3.org/2000/svg">
<path d="M15.4658 16.2908C14.6379 14.0766 12.5031 12.5001 10.0001 12.5001C7.49706 12.5001 5.36225 14.0766 4.53439 16.2908M15.4658 16.2908C17.2227 14.7629 18.3334 12.5112 18.3334 10.0001C18.3334 5.39771 14.6025 1.66675 10.0001 1.66675C5.39771 1.66675 1.66675 5.39771 1.66675 10.0001C1.66675 12.5112 2.77745 14.7629 4.53439 16.2908M15.4658 16.2908C14.0026 17.5631 12.0913 18.3334 10.0001 18.3334C7.90885 18.3334 5.99753 17.5631 4.53439 16.2908M12.5001 7.50008C12.5001 8.88079 11.3808 10.0001 10.0001 10.0001C8.61937 10.0001 7.50008 8.88079 7.50008 7.50008C7.50008 6.11937 8.61937 5.00008 10.0001 5.00008C11.3808 5.00008 12.5001 6.11937 12.5001 7.50008Z" stroke="#999999" stroke-width="1.25" stroke-linejoin="round"/>
</svg>
