<svg width="20" height="20" viewBox="0 0 20 20" fill="none" xmlns="http://www.w3.org/2000/svg">
<path d="M15.4657 16.2905C14.6378 14.0763 12.503 12.4998 9.99996 12.4998C7.49694 12.4998 5.36213 14.0763 4.53426 16.2905M15.4657 16.2905C17.2226 14.7627 18.3333 12.511 18.3333 9.99984C18.3333 5.39746 14.6023 1.6665 9.99996 1.6665C5.39759 1.6665 1.66663 5.39746 1.66663 9.99984C1.66663 12.511 2.77733 14.7627 4.53426 16.2905M15.4657 16.2905C14.0025 17.5629 12.0912 18.3332 9.99996 18.3332C7.90873 18.3332 5.99741 17.5629 4.53426 16.2905M12.5 7.49984C12.5 8.88055 11.3807 9.99984 9.99996 9.99984C8.61925 9.99984 7.49996 8.88055 7.49996 7.49984C7.49996 6.11913 8.61925 4.99984 9.99996 4.99984C11.3807 4.99984 12.5 6.11913 12.5 7.49984Z" stroke="white" stroke-width="1.25" stroke-linejoin="round"/>
</svg>
