<svg width="78" height="80" viewBox="0 0 78 80" fill="none" xmlns="http://www.w3.org/2000/svg">
<path d="M38.8606 43.6343V41.291H32.7687V52.8833H35.1119V48.1712H38.563V45.828H35.1119V43.6343H38.8606Z" fill="#178275"/>
<path d="M44.6966 27.0483C41.4819 27.0483 38.8663 29.6639 38.8663 32.8786C38.8663 36.0934 41.4819 38.7089 44.6966 38.7089C47.9114 38.7089 50.5268 36.0934 50.5268 32.8786C50.5268 29.6637 47.9114 27.0483 44.6966 27.0483ZM44.6966 36.3657C42.7738 36.3657 41.2096 34.8013 41.2096 32.8786C41.2096 30.9558 42.7739 29.3916 44.6966 29.3916C46.6193 29.3916 48.1835 30.9559 48.1835 32.8786C48.1835 34.8013 46.6193 36.3657 44.6966 36.3657Z" fill="#178275"/>
<path d="M49.7291 43.6343H52.2914V52.9518H54.6346V43.6343H57.2178V41.291H49.7291V43.6343Z" fill="#178275"/>
<path d="M47.3859 43.6343V41.291H41.2939V52.8835H47.3859V50.5403H43.6372V48.1712H47.0881V45.828H43.6372V43.6343H47.3859Z" fill="#178275"/>
<path d="M52.8615 27.3239L52.868 31.1882C52.8711 33.306 52.8743 35.4237 52.8819 37.5414L52.8861 38.7131L54.0579 38.7088C54.1352 38.7084 55.9617 38.7014 56.6914 38.6888C59.4306 38.641 61.419 36.2554 61.419 33.0162C61.419 29.6114 59.4808 27.3237 56.596 27.3237H52.8615V27.3239ZM59.0757 33.0164C59.0757 35.2872 57.8577 36.3249 56.6506 36.3458C56.3216 36.3516 55.7469 36.3561 55.2214 36.3596C55.2164 34.6346 55.2139 32.9097 55.2114 31.1848L55.2089 29.6671H56.5961C57.1777 29.6671 59.0757 29.9088 59.0757 33.0164Z" fill="#178275"/>
<path d="M65.4777 52.9548L65.4912 47.3699L68.8934 42.1438L66.9296 40.8654L64.3191 44.8756L61.6848 40.8413L59.7229 42.1224L63.1479 47.3682L63.1345 52.9491L65.4777 52.9548Z" fill="#178275"/>
<path d="M19.8964 52.3584L22.0862 53.1924L23.0872 50.5642H27.091L28.0821 53.1904L30.2744 52.363L26.1075 41.3215L24.0992 41.3236L19.8964 52.3584ZM26.2067 48.221H23.9797L25.0984 45.2838L26.2067 48.221Z" fill="#178275"/>
<path d="M16.5814 38.709H18.9247V33.9969H22.3756V31.6537H18.9247V29.4599H22.6734V27.1167H16.5814V38.709Z" fill="#178275"/>
<path d="M12.4891 41.4531C11.2002 41.8415 10.2883 42.8575 10.1093 44.1049C9.94137 45.2753 10.4488 46.4011 11.4335 47.0431L11.5113 47.0938L11.596 47.1316C11.6499 47.1556 12.9332 47.7269 14.3785 48.2601C14.7853 48.4102 15.7185 48.8334 15.5958 49.5207C15.5033 50.0387 14.8717 50.5744 13.975 50.5744C13.0508 50.5744 12.1617 50.202 11.5963 49.5781L10.8095 48.71L9.07312 50.2835L9.85982 51.1518C10.8621 52.2576 12.4004 52.9178 13.9749 52.9178C15.9418 52.9178 17.5936 51.6625 17.9024 49.9328C18.1349 48.6309 17.5442 46.9304 15.1894 46.0618C14.0463 45.64 12.9818 45.1807 12.6537 45.0372C12.4036 44.8355 12.4121 44.5551 12.429 44.4379C12.4522 44.2748 12.571 43.876 13.165 43.697C14.4665 43.3052 15.6734 44.2491 15.7221 44.2881L16.6138 45.0375L18.1215 43.2438L17.2246 42.4899C17.1364 42.4156 15.0387 40.6853 12.4891 41.4531Z" fill="#178275"/>
<path d="M24.807 32.8786C24.807 36.0934 27.4225 38.7089 30.6373 38.7089C33.8521 38.7089 36.4676 36.0934 36.4676 32.8786C36.4676 29.6637 33.8521 27.0483 30.6373 27.0483C27.4225 27.0483 24.807 29.6637 24.807 32.8786ZM30.6373 29.3916C32.56 29.3916 34.1244 30.9559 34.1244 32.8786C34.1244 34.8013 32.56 36.3657 30.6373 36.3657C28.7146 36.3657 27.1502 34.8013 27.1502 32.8786C27.1502 30.9558 28.7146 29.3916 30.6373 29.3916Z" fill="#178275"/>
<path d="M74.6077 39.9998L76.915 33.5201C78.2981 29.6063 76.867 25.2369 73.4363 22.8955L67.7877 19.0297L65.851 12.4655C64.6826 8.48149 60.9645 5.7799 56.8098 5.89221L49.9588 6.0853L44.6476 1.99322C41.3207 -0.664485 36.6795 -0.664328 33.3529 1.99322L28.0415 6.08545L21.1897 5.89237C17.0336 5.77927 13.3179 8.48165 12.1503 12.4638L11.7313 13.8838L13.9788 14.5469L14.3984 13.125C15.2674 10.1608 18.0337 8.14563 21.1249 8.23467L28.8104 8.45135L34.7916 3.84297L34.809 3.82938C37.2767 1.85278 40.7239 1.85262 43.1921 3.82938L49.1902 8.45119L56.8748 8.23452C59.9696 8.15438 62.733 10.1608 63.6027 13.1267L65.776 20.4925L72.1141 24.8301C74.669 26.574 75.7347 29.8262 74.7064 32.7367L72.1202 39.9998L74.7054 47.2603C75.7347 50.1734 74.6692 53.4258 72.1129 55.1704L65.776 59.5071L63.6021 66.8747C62.9033 69.2573 60.9636 71.0707 58.5396 71.6068L59.0457 73.8948C62.3039 73.174 64.9115 70.7367 65.8502 67.536L67.7876 60.9699L73.4349 57.1048C76.8668 54.7627 78.2978 50.3933 76.9139 46.4768L74.6077 39.9998Z" fill="#178275"/>
<path d="M54.088 73.9971L54.1536 71.6538L56.4969 71.7194L56.4313 74.0627L54.088 73.9971Z" fill="#178275"/>
<path d="M43.2091 76.1567L43.1917 76.1703C40.7235 78.1471 37.2765 78.1469 34.8086 76.1703L28.8102 71.5485L21.1256 71.7652C18.0346 71.8475 15.2674 69.8389 14.3977 66.873L12.2241 59.5072L5.88611 55.1696C3.33104 53.4257 2.26549 50.1733 3.2937 47.2629L5.88002 39.9997L3.29464 32.7393C2.26533 29.8262 3.33088 26.5738 5.8872 24.8291L12.224 20.4924L13.3151 16.7945L11.0676 16.1313L10.2124 19.0296L4.56499 22.8947C1.13324 25.2369 -0.297702 29.6061 1.08606 33.5229L3.39243 39.9999L1.08497 46.4796C-0.297858 50.3936 1.13308 54.7628 4.56358 57.1042L10.2124 60.97L12.1493 67.5341C13.2937 71.4374 16.8845 74.1112 20.9375 74.1109C21.0214 74.1109 21.1061 74.1098 21.1903 74.1075L28.041 73.9144L33.3523 78.0066C35.0157 79.3354 37.0076 80 38.9997 80C40.9914 80 42.9835 79.3356 44.6471 78.0066L49.9582 73.9144L51.7255 73.9642L51.7914 71.6219L49.1897 71.5487L43.2091 76.1567Z" fill="#178275"/>
<path d="M49.3163 11.5308L48.3872 11.4716C44.9717 11.2538 41.3157 12.6824 39.0003 14.9349C36.6519 12.6452 32.9876 11.2563 29.6133 11.4716L28.6841 11.5308L28.532 12.4493C27.8035 16.849 29.8164 21.9448 33.1146 24.0504C34.1325 24.7003 35.2004 25.0246 36.2701 25.0246C37.189 25.0246 38.1088 24.781 39.0002 24.3032C39.8914 24.7812 40.811 25.0246 41.73 25.0246C42.7998 25.0246 43.868 24.7001 44.8856 24.0504C48.1838 21.9449 50.1968 16.8492 49.4683 12.4493L49.3163 11.5308ZM34.3755 22.0752C32.1241 20.6379 30.584 17.0205 30.7413 13.8034C33.2555 13.9251 35.8886 15.0805 37.53 16.7831C37.4503 16.9185 37.3738 17.0551 37.3036 17.1938C36.3968 18.989 36.404 20.8313 37.2941 22.5011C36.316 22.8305 35.3383 22.6899 34.3755 22.0752ZM43.6249 22.0754C42.3635 22.8808 41.076 22.875 39.7951 22.0591C38.855 20.867 38.7204 19.5862 39.3952 18.2504C40.5995 15.8666 44.043 13.9718 47.2593 13.8055C47.4157 17.0219 45.8758 20.6383 43.6249 22.0754Z" fill="#178275"/>
<path d="M28.532 67.98L28.6841 68.8985L29.6133 68.9577C29.8431 68.9724 30.0741 68.9796 30.3061 68.9796C33.4799 68.9796 36.8106 67.6277 38.9991 65.4943C41.1594 67.5957 44.4872 68.9796 47.6953 68.9796C47.9265 68.9796 48.1575 68.9724 48.3872 68.9577L49.3163 68.8985L49.4685 67.98C50.1969 63.5802 48.1839 58.4844 44.8857 56.3789C42.9938 55.1709 40.9293 55.0912 39.0003 56.1257C37.0714 55.0914 35.0068 55.1711 33.1147 56.3789C29.8164 58.4846 27.8035 63.5803 28.532 67.98ZM43.6248 58.3541C45.8757 59.7911 47.4157 63.4075 47.2593 66.624C44.0431 66.4573 40.5993 64.5628 39.3952 62.1791C38.7202 60.8431 38.855 59.5624 39.7951 58.3704C41.0753 57.5543 42.363 57.5487 43.6248 58.3541ZM34.3754 58.3541C35.338 57.7394 36.3159 57.5988 37.294 57.9283C36.4038 59.5981 36.3967 61.4403 37.3035 63.2355C37.3735 63.3743 37.4502 63.5108 37.5298 63.6462C35.8885 65.349 33.2555 66.5044 30.7412 66.6259C30.584 63.4089 32.124 59.7915 34.3754 58.3541Z" fill="#178275"/>
<path d="M58.7656 13.3198L61.0128 12.6567L61.676 14.904L59.4288 15.5671L58.7656 13.3198Z" fill="#178275"/>
<path d="M60.0917 17.811L62.3388 17.1479L63.002 19.3951L60.7548 20.0582L60.0917 17.811Z" fill="#178275"/>
</svg>
