<svg width="13" height="12" viewBox="0 0 13 12" fill="none" xmlns="http://www.w3.org/2000/svg">
<path fill-rule="evenodd" clip-rule="evenodd" d="M3.58601 0.0736373C2.6086 0.117707 1.76143 0.356504 1.07737 1.03721C0.390913 1.72149 0.154917 2.57141 0.110707 3.53798C0.0832243 4.14127 -0.0774775 8.69895 0.388524 9.89421C0.702776 10.7006 1.32171 11.3206 2.13601 11.6356C2.51598 11.7833 2.94974 11.8833 3.58601 11.9125C8.90619 12.1531 10.8783 12.0221 11.71 9.89421C11.8575 9.51544 11.9591 9.08237 11.9872 8.44812C12.2303 3.11801 11.9477 1.96268 11.0205 1.03721C10.2851 0.304095 9.41998 -0.194952 3.58601 0.0736373ZM3.63498 10.8405C3.05248 10.8143 2.73644 10.7173 2.52555 10.6357C1.99502 10.4297 1.59653 10.0331 1.39161 9.50603C1.03673 8.59782 1.15443 4.2843 1.1861 3.58632C1.21717 2.90263 1.35577 2.27779 1.8385 1.79541C2.43594 1.19986 3.20782 0.907991 8.46348 1.14502C9.14933 1.17599 9.77606 1.31421 10.26 1.79541C10.8574 2.39095 11.1537 3.16823 10.9124 8.40007C10.8861 8.98073 10.7887 9.2958 10.7069 9.50603C10.1662 10.8907 8.92231 11.0829 3.63498 10.8405ZM8.52143 2.81376C8.52143 3.20802 8.84227 3.52861 9.23837 3.52861C9.63447 3.52861 9.95589 3.20802 9.95589 2.81376C9.95589 2.41952 9.63447 2.09922 9.23837 2.09922C8.84227 2.09922 8.52143 2.41952 8.52143 2.81376ZM2.98139 5.99276C2.98139 7.68172 4.35491 9.05105 6.04924 9.05105C7.74357 9.05105 9.11708 7.68172 9.11708 5.99276C9.11708 4.3038 7.74357 2.93535 6.04924 2.93535C4.35491 2.93535 2.98139 4.3038 2.98139 5.99276ZM4.05798 5.99276C4.05798 4.89696 4.94936 4.0079 6.04924 4.0079C7.14912 4.0079 8.0405 4.89696 8.0405 5.99276C8.0405 7.08915 7.14912 7.97849 6.04924 7.97849C4.94936 7.97849 4.05798 7.08915 4.05798 5.99276Z" fill="#072723"/>
</svg>
