<svg width="146" height="41" viewBox="0 0 146 41" fill="none" xmlns="http://www.w3.org/2000/svg">
<g clip-path="url(#clip0_1080_487)">
<path d="M40.4005 26.5586C40.3845 34.2611 34.139 40.5001 26.4434 40.5001C18.7478 40.5001 12.5024 34.2611 12.4863 26.5586H40.4005Z" fill="#6AD871"/>
<path d="M15.4629 2.36041C22.137 -1.4768 30.6538 0.816707 34.5037 7.48872C38.3535 14.1647 36.078 22.6932 29.42 26.5585L15.4629 2.36041Z" fill="#6AD871"/>
<path d="M6.95385 36.1255C0.299795 32.2602 -1.97564 23.7278 1.87017 17.0558C5.71999 10.3797 14.2369 8.09024 20.9109 11.9274L6.95385 36.1255Z" fill="#6AD871"/>
<path d="M66.8967 16.8791C66.8967 18.11 66.6163 19.2006 66.0555 20.1469C65.4946 21.0932 64.6974 21.835 63.6639 22.3723C62.6303 22.9055 61.4004 23.1742 59.9743 23.1742H55.2592V29.8582H51.2852V10.8687H59.81C62.0815 10.8687 63.8321 11.3939 65.054 12.4404C66.2798 13.4869 66.8927 14.9665 66.8927 16.8831L66.8967 16.8791ZM62.8947 16.9472C62.8947 14.9504 61.7169 13.9561 59.3654 13.9561H55.2592V20.1148H59.4735C60.5672 20.1148 61.4125 19.8422 62.0054 19.3009C62.5982 18.7596 62.8947 17.9737 62.8947 16.9472Z" fill="white"/>
<path d="M72.8899 23.2943C72.8899 24.7137 73.1543 25.7843 73.6791 26.5101C74.2039 27.2318 74.953 27.5967 75.9225 27.5967C77.2605 27.5967 78.1058 27.0153 78.4543 25.8565L82.0237 26.1652C80.9902 28.8076 78.895 30.1267 75.7342 30.1267C73.5429 30.1267 71.8604 29.4772 70.6826 28.1781C69.5048 26.8789 68.9199 24.9864 68.9199 22.4964C68.9199 20.0065 69.5168 18.2382 70.7106 16.9431C71.9044 15.648 73.599 15.0024 75.7863 15.0024C77.9736 15.0024 79.4759 15.6961 80.5815 17.0834C81.6872 18.4708 82.236 20.5036 82.236 23.1821V23.2903H72.8899V23.2943ZM78.5745 20.9206C78.5024 19.7418 78.218 18.8597 77.7252 18.2703C77.2325 17.6809 76.5675 17.3882 75.7302 17.3882C74.8409 17.3882 74.1558 17.6969 73.6751 18.3184C73.1944 18.9399 72.942 19.806 72.914 20.9206H78.5705H78.5745Z" fill="white"/>
<path d="M88.8861 22.0434V29.8622H85.1003V18.539C85.1003 17.7572 85.0883 17.1156 85.0683 16.6184C85.0443 16.1212 85.0202 15.6722 84.9922 15.2792H88.6016C88.6177 15.3875 88.6417 15.6401 88.6697 16.041C88.6978 16.442 88.7218 16.851 88.7419 17.268C88.7659 17.685 88.7739 17.9897 88.7739 18.1782H88.826C89.3388 17.0635 89.9797 16.2535 90.7529 15.7523C91.5261 15.2511 92.4434 14.9985 93.5131 14.9985C95.0554 14.9985 96.2412 15.4757 97.0704 16.426C97.8957 17.3803 98.3083 18.7716 98.3083 20.604V29.8662H94.5386V21.6826C94.5386 19.1204 93.6733 17.8414 91.9387 17.8414C91.0213 17.8414 90.2842 18.2343 89.7233 19.0202C89.1625 19.8061 88.8821 20.8165 88.8821 22.0475L88.8861 22.0434Z" fill="white"/>
<path d="M108.872 29.6459C107.955 29.9506 106.893 30.103 105.679 30.103C104.566 30.103 103.708 29.7983 103.108 29.1928C102.507 28.5873 102.206 27.6691 102.206 26.4342V17.8335H100.359V15.2714H102.394L103.58 11.8472H105.952V15.2714H108.712V17.8335H105.952V25.4077C105.952 26.791 106.505 27.4847 107.61 27.4847C107.879 27.4847 108.303 27.4205 108.876 27.2962V29.6419L108.872 29.6459Z" fill="white"/>
<path d="M114.921 22.7012V29.8584H111.136V18.6956C111.136 17.8937 111.123 17.2281 111.103 16.6948C111.079 16.1615 111.055 15.6844 111.027 15.2714H114.637C114.653 15.3516 114.673 15.532 114.689 15.8087C114.705 16.0854 114.725 16.3981 114.741 16.7469C114.757 17.0918 114.773 17.4206 114.789 17.7253C114.801 18.03 114.809 18.2505 114.809 18.3869H114.861C115.222 17.3805 115.546 16.6587 115.843 16.2177C116.131 15.7967 116.472 15.4839 116.864 15.2874C117.261 15.091 117.754 14.9907 118.346 14.9907C118.831 14.9907 119.224 15.0589 119.516 15.1912V18.3588C118.915 18.2225 118.374 18.1583 117.902 18.1583C116.96 18.1583 116.223 18.5392 115.698 19.3051C115.174 20.0709 114.909 21.2016 114.909 22.7012H114.921Z" fill="white"/>
<path d="M125.237 30.131C123.827 30.131 122.729 29.7461 121.936 28.9763C121.147 28.2064 120.75 27.1278 120.75 25.7365C120.75 24.2249 121.243 23.0821 122.224 22.3002C123.206 21.5184 124.632 21.1094 126.499 21.0733L129.635 21.0212V20.2794C129.635 19.3251 129.467 18.6194 129.139 18.1583C128.806 17.6972 128.261 17.4646 127.508 17.4646C126.807 17.4646 126.294 17.625 125.966 17.9418C125.637 18.2585 125.433 18.7878 125.353 19.5256L121.407 19.3371C121.9 16.4542 123.987 15.0107 127.668 15.0107C129.507 15.0107 130.929 15.4638 131.923 16.374C132.92 17.2802 133.417 18.5713 133.417 20.2433V25.5561C133.417 26.374 133.509 26.9394 133.694 27.2481C133.878 27.5569 134.186 27.7132 134.615 27.7132C134.903 27.7132 135.18 27.6852 135.448 27.633V29.682C134.979 29.7982 134.583 29.8864 134.25 29.9466C133.918 30.0067 133.509 30.0348 133.025 30.0348C132.071 30.0348 131.37 29.8022 130.917 29.3331C130.465 28.864 130.192 28.1783 130.104 27.2722H130.024C128.962 29.1848 127.368 30.1431 125.229 30.1431L125.237 30.131ZM129.639 23.1062L127.7 23.1342C126.811 23.1783 126.186 23.2746 125.83 23.4189C125.461 23.5793 125.181 23.8239 124.988 24.1487C124.796 24.4735 124.7 24.9025 124.7 25.4438C124.7 26.1374 124.86 26.6507 125.177 26.9875C125.497 27.3243 125.918 27.4927 126.451 27.4927C127.044 27.4927 127.584 27.3323 128.081 27.0075C128.566 26.6828 128.946 26.2377 129.227 25.6683C129.507 25.099 129.643 24.4935 129.643 23.856V23.1142L129.639 23.1062Z" fill="white"/>
<path d="M140.997 22.7012V29.8584H137.211V18.6956C137.211 17.8937 137.199 17.2281 137.179 16.6948C137.155 16.1615 137.131 15.6844 137.103 15.2714H140.712C140.728 15.3516 140.748 15.532 140.764 15.8087C140.78 16.0854 140.8 16.3981 140.816 16.7469C140.832 17.0918 140.848 17.4206 140.864 17.7253C140.876 18.03 140.884 18.2505 140.884 18.3869H140.937C141.297 17.3805 141.622 16.6587 141.918 16.2177C142.206 15.7967 142.547 15.4839 142.94 15.2874C143.336 15.091 143.829 14.9907 144.422 14.9907C144.907 14.9907 145.299 15.0589 145.592 15.1912V18.3588C144.991 18.2225 144.45 18.1583 143.977 18.1583C143.036 18.1583 142.299 18.5392 141.774 19.3051C141.249 20.0709 140.985 21.2016 140.985 22.7012H140.997Z" fill="white"/>
</g>
<defs>
<clipPath id="clip0_1080_487">
<rect width="145.6" height="40" fill="white" transform="translate(0 0.5)"/>
</clipPath>
</defs>
</svg>
