<svg width="175" height="48" viewBox="0 0 175 48" fill="none" xmlns="http://www.w3.org/2000/svg">
<g clip-path="url(#clip0_360_737)">
<path d="M48.4811 31.2703C48.4619 40.5132 40.9674 48 31.7326 48C22.4979 48 15.0034 40.5132 14.9841 31.2703H48.4811Z" fill="#6AD871"/>
<path d="M18.556 2.23257C26.5649 -2.37208 36.7852 0.380122 41.405 8.38654C46.0247 16.3978 43.2942 26.6319 35.3045 31.2703L18.556 2.23257Z" fill="#6AD871"/>
<path d="M8.34535 42.7506C0.360487 38.1123 -2.37004 27.8733 2.24493 19.8669C6.86471 11.8556 17.085 9.10824 25.0939 13.7129L8.34535 42.7506Z" fill="#6AD871"/>
<path d="M80.2764 19.6552C80.2764 21.1323 79.9399 22.4411 79.2669 23.5766C78.5938 24.7121 77.6372 25.6022 76.3969 26.247C75.1566 26.8869 73.6808 27.2093 71.9694 27.2093H66.3113V35.2301H61.5425V12.4427H71.7723C74.4981 12.4427 76.5988 13.073 78.065 14.3288C79.5361 15.5846 80.2716 17.3601 80.2716 19.66L80.2764 19.6552ZM75.4739 19.737C75.4739 17.3408 74.0606 16.1475 71.2387 16.1475H66.3113V23.5381H71.3685C72.6809 23.5381 73.6952 23.2109 74.4067 22.5613C75.1182 21.9118 75.4739 20.9687 75.4739 19.737Z" fill="#072723"/>
<path d="M87.4681 27.3537C87.4681 29.0569 87.7854 30.3416 88.4151 31.2125C89.0449 32.0786 89.9438 32.5165 91.1072 32.5165C92.7128 32.5165 93.7272 31.8188 94.1454 30.4282L98.4287 30.7987C97.1884 33.9695 94.6742 35.5525 90.8813 35.5525C88.2517 35.5525 86.2326 34.7731 84.8193 33.2141C83.406 31.6552 82.7041 29.3841 82.7041 26.3962C82.7041 23.4082 83.4204 21.2863 84.8529 19.7322C86.2855 18.178 88.319 17.4034 90.9438 17.4034C93.5685 17.4034 95.3712 18.2358 96.698 19.9006C98.0248 21.5654 98.6834 24.0048 98.6834 27.2189V27.3489H87.4681V27.3537ZM94.2896 24.5052C94.2031 23.0906 93.8618 22.0321 93.2705 21.3248C92.6792 20.6175 91.8812 20.2663 90.8764 20.2663C89.8092 20.2663 88.9872 20.6367 88.4103 21.3825C87.8335 22.1283 87.5306 23.1676 87.4969 24.5052H94.2848H94.2896Z" fill="#072723"/>
<path d="M106.664 25.8524V35.235H102.121V21.6472C102.121 20.7089 102.106 19.9391 102.082 19.3424C102.053 18.7458 102.024 18.2069 101.991 17.7354H106.322C106.341 17.8653 106.37 18.1684 106.404 18.6496C106.438 19.1307 106.466 19.6215 106.49 20.1219C106.519 20.6223 106.529 20.988 106.529 21.2141H106.591C107.207 19.8765 107.976 18.9046 108.904 18.3031C109.831 17.7017 110.932 17.3986 112.216 17.3986C114.067 17.3986 115.49 17.9711 116.485 19.1115C117.475 20.2566 117.97 21.9262 117.97 24.1251V35.2398H113.447V25.4194C113.447 22.3448 112.408 20.8099 110.327 20.8099C109.226 20.8099 108.341 21.2815 107.668 22.2245C106.995 23.1676 106.659 24.3801 106.659 25.8573L106.664 25.8524Z" fill="#072723"/>
<path d="M130.647 34.9751C129.546 35.3408 128.272 35.5236 126.815 35.5236C125.479 35.5236 124.45 35.158 123.729 34.4314C123.008 33.7049 122.648 32.603 122.648 31.1211V20.8003H120.431V17.7257H122.873L124.296 13.6167H127.142V17.7257H130.455V20.8003H127.142V29.8893C127.142 31.5493 127.806 32.3817 129.133 32.3817C129.455 32.3817 129.964 32.3047 130.652 32.1556V34.9703L130.647 34.9751Z" fill="#072723"/>
<path d="M137.906 26.6415V35.2301H133.363V21.8348C133.363 20.8725 133.349 20.0738 133.324 19.4338C133.296 18.7939 133.267 18.2213 133.233 17.7257H137.565C137.584 17.822 137.608 18.0385 137.627 18.3705C137.646 18.7025 137.67 19.0778 137.689 19.4964C137.709 19.9102 137.728 20.3047 137.747 20.6704C137.762 21.0361 137.771 21.3007 137.771 21.4643H137.834C138.266 20.2566 138.656 19.3905 139.011 18.8613C139.358 18.356 139.766 17.9807 140.237 17.745C140.713 17.5092 141.305 17.3889 142.016 17.3889C142.598 17.3889 143.069 17.4707 143.42 17.6295V21.4306C142.699 21.267 142.05 21.19 141.482 21.19C140.353 21.19 139.468 21.6471 138.838 22.5661C138.209 23.4851 137.891 24.842 137.891 26.6415H137.906Z" fill="#072723"/>
<path d="M150.285 35.5573C148.592 35.5573 147.275 35.0954 146.323 34.1716C145.376 33.2478 144.9 31.9535 144.9 30.2839C144.9 28.4699 145.492 27.0986 146.669 26.1604C147.847 25.2221 149.559 24.7314 151.799 24.6881L155.563 24.6255V23.7354C155.563 22.5902 155.361 21.7434 154.967 21.1901C154.568 20.6367 153.914 20.3577 153.01 20.3577C152.169 20.3577 151.554 20.5501 151.159 20.9302C150.765 21.3103 150.52 21.9455 150.424 22.8308L145.689 22.6047C146.28 19.1452 148.785 17.413 153.203 17.413C155.409 17.413 157.116 17.9567 158.308 19.0489C159.505 20.1363 160.101 21.6856 160.101 23.6921V30.0674C160.101 31.0489 160.212 31.7273 160.433 32.0978C160.654 32.4683 161.024 32.656 161.538 32.656C161.884 32.656 162.216 32.6223 162.538 32.5597V35.0184C161.976 35.158 161.5 35.2638 161.101 35.336C160.702 35.4082 160.212 35.4419 159.63 35.4419C158.486 35.4419 157.644 35.1628 157.101 34.5998C156.558 34.0369 156.231 33.2141 156.125 32.1267H156.029C154.755 34.4218 152.842 35.5718 150.275 35.5718L150.285 35.5573ZM155.568 27.1275L153.241 27.1612C152.174 27.2141 151.424 27.3296 150.996 27.5028C150.554 27.6953 150.217 27.9888 149.986 28.3785C149.756 28.7682 149.64 29.2831 149.64 29.9326C149.64 30.765 149.833 31.3809 150.212 31.7851C150.597 32.1893 151.102 32.3913 151.741 32.3913C152.453 32.3913 153.102 32.1989 153.698 31.8091C154.279 31.4194 154.736 30.8853 155.073 30.2021C155.409 29.5188 155.573 28.7923 155.573 28.0273V27.1371L155.568 27.1275Z" fill="#072723"/>
<path d="M169.196 26.6415V35.2301H164.653V21.8348C164.653 20.8725 164.639 20.0738 164.615 19.4338C164.586 18.7939 164.557 18.2213 164.524 17.7257H168.855C168.874 17.822 168.898 18.0385 168.918 18.3705C168.937 18.7025 168.961 19.0778 168.98 19.4964C168.999 19.9102 169.018 20.3047 169.038 20.6704C169.052 21.0361 169.062 21.3007 169.062 21.4643H169.124C169.557 20.2566 169.946 19.3905 170.302 18.8613C170.648 18.356 171.057 17.9807 171.528 17.745C172.004 17.5092 172.595 17.3889 173.307 17.3889C173.888 17.3889 174.359 17.4707 174.71 17.6295V21.4306C173.989 21.267 173.34 21.19 172.773 21.19C171.643 21.19 170.759 21.6471 170.129 22.5661C169.499 23.4851 169.182 24.842 169.182 26.6415H169.196Z" fill="#072723"/>
</g>
<defs>
<clipPath id="clip0_360_737">
<rect width="174.72" height="48" fill="white"/>
</clipPath>
</defs>
</svg>
