<svg width="182" height="50" viewBox="0 0 182 50" fill="none" xmlns="http://www.w3.org/2000/svg">
<path d="M50.4988 32.5741C50.4758 42.2039 42.6757 50 33.0495 50C23.4232 50 15.6231 42.2039 15.6001 32.5741H50.4988Z" fill="white"/>
<path d="M19.3271 2.32395C27.6687 -2.47365 38.3204 0.392222 43.1307 8.73613C47.9409 17.08 45.0951 27.742 36.7765 32.5742L19.3271 2.32395Z" fill="white"/>
<path d="M8.69301 44.5335C0.374459 39.7013 -2.47136 29.0393 2.33888 20.6954C7.14912 12.3515 17.8008 9.48564 26.1424 14.2832L8.69301 44.5335Z" fill="white"/>
<path d="M83.6176 20.4763C83.6176 22.0159 83.2662 23.3768 82.5634 24.5647C81.8606 25.7525 80.8639 26.6751 79.5735 27.344C78.2831 28.0129 76.745 28.3474 74.9591 28.3474H69.0659V36.7028H64.1001V12.9628H74.7575C77.5976 12.9628 79.7809 13.6201 81.3133 14.9233C82.8456 16.2323 83.6118 18.0833 83.6118 20.4763H83.6176ZM78.6172 20.5628C78.6172 18.066 77.1482 16.8205 74.2045 16.8205H69.0716V24.5185H74.3428C75.7138 24.5185 76.768 24.1783 77.5054 23.4979C78.2485 22.8175 78.6172 21.8372 78.6172 20.557V20.5628Z" fill="white"/>
<path d="M91.1122 28.4973C91.1122 30.2733 91.4405 31.6111 92.0973 32.5164C92.754 33.4217 93.6872 33.8715 94.9028 33.8715C96.5734 33.8715 97.6276 33.145 98.0654 31.6976L102.524 32.084C101.234 35.3881 98.6127 37.0372 94.6608 37.0372C91.9244 37.0372 89.816 36.2242 88.347 34.6038C86.878 32.9835 86.1406 30.6135 86.1406 27.4997C86.1406 24.3859 86.8838 22.1774 88.3816 20.557C89.8736 18.9367 91.9878 18.1294 94.7299 18.1294C97.4721 18.1294 99.3443 19.0001 100.721 20.7358C102.098 22.4715 102.789 25.0144 102.789 28.3589V28.4915H91.1064L91.1122 28.4973ZM98.2152 25.5334C98.123 24.063 97.7716 22.9558 97.1552 22.2235C96.5388 21.4912 95.7093 21.1221 94.6608 21.1221C93.549 21.1221 92.6964 21.5085 92.0915 22.2869C91.4866 23.0654 91.1755 24.1437 91.141 25.5392H98.2094L98.2152 25.5334Z" fill="white"/>
<path d="M111.108 26.9289V36.7028H106.378V22.5464C106.378 21.5662 106.367 20.7704 106.338 20.1476C106.309 19.5249 106.28 18.9655 106.246 18.4696H110.757C110.78 18.6023 110.808 18.9194 110.843 19.4211C110.878 19.9228 110.906 20.4302 110.935 20.9549C110.964 21.4797 110.975 21.8545 110.975 22.0909H111.045C111.684 20.6954 112.485 19.6863 113.453 19.0578C114.42 18.4293 115.567 18.1121 116.903 18.1121C118.833 18.1121 120.314 18.7061 121.345 19.8997C122.376 21.0933 122.894 22.829 122.894 25.124V36.7028H118.182V26.4733C118.182 23.273 117.099 21.67 114.933 21.67C113.787 21.67 112.865 22.1601 112.162 23.1461C111.459 24.1322 111.108 25.3893 111.108 26.9289Z" fill="white"/>
<path d="M136.093 36.4318C134.946 36.8124 133.615 37.0026 132.1 37.0026C130.706 37.0026 129.635 36.6221 128.886 35.8667C128.131 35.1055 127.757 33.958 127.757 32.4184V21.6699H125.452V18.4696H127.993L129.473 14.191H132.434V18.4696H135.885V21.6699H132.434V31.1383C132.434 32.8682 133.126 33.7331 134.503 33.7331C134.837 33.7331 135.367 33.6524 136.087 33.4967V36.426L136.093 36.4318Z" fill="white"/>
<path d="M143.651 27.7534V36.7028H138.921V22.7482C138.921 21.7507 138.91 20.9145 138.881 20.2456C138.852 19.5767 138.823 18.9828 138.789 18.4696H143.299C143.322 18.5734 143.345 18.7983 143.368 19.1443C143.391 19.4902 143.414 19.8824 143.438 20.3148C143.461 20.7473 143.478 21.1567 143.495 21.5373C143.512 21.9179 143.518 22.1947 143.518 22.3619H143.587C144.037 21.1048 144.446 20.1995 144.814 19.6517C145.172 19.1212 145.598 18.7349 146.093 18.4869C146.589 18.239 147.205 18.1179 147.942 18.1179C148.547 18.1179 149.037 18.2044 149.406 18.3716V22.3331C148.651 22.1658 147.983 22.0793 147.384 22.0793C146.203 22.0793 145.287 22.5579 144.63 23.5094C143.973 24.4666 143.645 25.8794 143.645 27.7534H143.651Z" fill="white"/>
<path d="M156.543 37.043C154.78 37.043 153.404 36.5644 152.418 35.6015C151.433 34.6385 150.938 33.2892 150.938 31.5477C150.938 29.6621 151.554 28.2263 152.781 27.2518C154.008 26.2773 155.794 25.7641 158.127 25.7179L162.051 25.6487V24.7204C162.051 23.5325 161.843 22.6445 161.428 22.0678C161.014 21.4912 160.334 21.2029 159.389 21.2029C158.513 21.2029 157.874 21.4047 157.459 21.8026C157.05 22.2005 156.797 22.8636 156.693 23.7804L151.762 23.544C152.378 19.9401 154.988 18.1352 159.591 18.1352C161.889 18.1352 163.664 18.7003 164.908 19.8363C166.152 20.9722 166.774 22.581 166.774 24.6742V31.3113C166.774 32.3319 166.89 33.0412 167.12 33.4275C167.35 33.8139 167.736 34.0099 168.272 34.0099C168.629 34.0099 168.981 33.9753 169.315 33.9062V36.4664C168.733 36.6106 168.232 36.7201 167.817 36.7951C167.402 36.8701 166.89 36.9047 166.285 36.9047C165.092 36.9047 164.217 36.6106 163.652 36.0282C163.087 35.4458 162.748 34.5866 162.632 33.4506H162.529C161.204 35.8436 159.205 37.0373 156.537 37.0373L156.543 37.043ZM162.051 28.2609L159.625 28.2955C158.513 28.3532 157.736 28.4685 157.286 28.6472C156.825 28.8491 156.474 29.1547 156.232 29.5583C155.99 29.962 155.869 30.504 155.869 31.1787C155.869 32.0436 156.071 32.6895 156.468 33.1104C156.866 33.5313 157.396 33.7447 158.058 33.7447C158.801 33.7447 159.475 33.5429 160.098 33.1392C160.702 32.7356 161.181 32.1762 161.526 31.4612C161.872 30.7462 162.051 29.9908 162.051 29.195V28.2667V28.2609Z" fill="white"/>
<path d="M176.239 27.7534V36.7028H171.51V22.7482C171.51 21.7507 171.498 20.9145 171.469 20.2456C171.441 19.5767 171.412 18.9828 171.377 18.4696H175.888C175.911 18.5734 175.934 18.7983 175.957 19.1443C175.98 19.4902 176.003 19.8824 176.026 20.3148C176.049 20.7473 176.066 21.1567 176.084 21.5373C176.101 21.9179 176.107 22.1947 176.107 22.3619H176.176C176.625 21.1048 177.034 20.1995 177.403 19.6517C177.76 19.1212 178.186 18.7349 178.682 18.4869C179.177 18.239 179.794 18.1179 180.531 18.1179C181.136 18.1179 181.626 18.2044 181.994 18.3716V22.3331C181.24 22.1658 180.571 22.0793 179.972 22.0793C178.791 22.0793 177.875 22.5579 177.219 23.5094C176.562 24.4666 176.234 25.8794 176.234 27.7534H176.239Z" fill="white"/>
</svg>
