<svg width="20" height="20" viewBox="0 0 20 20" fill="none" xmlns="http://www.w3.org/2000/svg">
<path d="M3.71289 11.5667L3.23658 11.162H3.23658L3.71289 11.5667ZM4.44561 9.86541L3.82458 9.79506L4.44561 9.86541ZM15.5543 9.86542L16.1754 9.79507L15.5543 9.86542ZM16.2871 11.5667L16.7634 11.162L16.2871 11.5667ZM15.2669 7.32836L14.6459 7.39871L15.2669 7.32836ZM4.73301 7.32836L5.35404 7.39871L4.73301 7.32836ZM13.0852 16.0527C13.2064 15.7294 13.0425 15.3692 12.7193 15.2481C12.3961 15.1269 12.0359 15.2908 11.9147 15.614L13.0852 16.0527ZM8.08523 15.614C7.96409 15.2908 7.60387 15.1269 7.28064 15.2481C6.95742 15.3692 6.79359 15.7294 6.91473 16.0527L8.08523 15.614ZM15.1415 13.5417H4.85843V14.7917H15.1415V13.5417ZM14.6459 7.39871L14.9333 9.93577L16.1754 9.79507L15.888 7.25801L14.6459 7.39871ZM5.06664 9.93576L5.35404 7.39871L4.11198 7.25801L3.82458 9.79506L5.06664 9.93576ZM4.1892 11.9714C4.67642 11.3979 4.98144 10.6879 5.06664 9.93576L3.82458 9.79506C3.76696 10.3037 3.56098 10.7802 3.23658 11.162L4.1892 11.9714ZM14.9333 9.93577C15.0185 10.6879 15.3235 11.3979 15.8108 11.9714L16.7634 11.162C16.439 10.7802 16.233 10.3037 16.1754 9.79507L14.9333 9.93577ZM4.85843 13.5417C4.11943 13.5417 3.64936 12.6068 4.1892 11.9714L3.23658 11.162C2.05408 12.5539 2.98188 14.7917 4.85843 14.7917V13.5417ZM15.1415 14.7917C17.0181 14.7917 17.9459 12.5539 16.7634 11.162L15.8108 11.9714C16.3506 12.6068 15.8805 13.5417 15.1415 13.5417V14.7917ZM15.888 7.25801C15.542 4.20394 13.0232 1.875 9.99998 1.875V3.125C12.3585 3.125 14.3682 4.94748 14.6459 7.39871L15.888 7.25801ZM5.35404 7.39871C5.63171 4.94748 7.64146 3.125 9.99998 3.125V1.875C6.97675 1.875 4.45795 4.20394 4.11198 7.25801L5.35404 7.39871ZM11.9147 15.614C11.6458 16.3316 10.9038 16.875 9.99998 16.875V18.125C11.4045 18.125 12.6264 17.2771 13.0852 16.0527L11.9147 15.614ZM9.99998 16.875C9.09616 16.875 8.35416 16.3316 8.08523 15.614L6.91473 16.0527C7.37361 17.2771 8.59541 18.125 9.99998 18.125V16.875Z" fill="#999999"/>
</svg>
