<svg width="20" height="20" viewBox="0 0 20 20" fill="none" xmlns="http://www.w3.org/2000/svg">
<path d="M3.71307 11.5667L3.23677 11.162H3.23677L3.71307 11.5667ZM4.4458 9.86541L3.82477 9.79506L4.4458 9.86541ZM15.5545 9.86542L16.1756 9.79507L15.5545 9.86542ZM16.2873 11.5667L16.7636 11.162L16.2873 11.5667ZM15.2671 7.32836L14.6461 7.39871L15.2671 7.32836ZM4.73319 7.32836L5.35422 7.39871L4.73319 7.32836ZM13.0854 16.0527C13.2065 15.7294 13.0427 15.3692 12.7195 15.2481C12.3963 15.1269 12.036 15.2908 11.9149 15.614L13.0854 16.0527ZM8.08541 15.614C7.96428 15.2908 7.60405 15.1269 7.28083 15.2481C6.9576 15.3692 6.79378 15.7294 6.91491 16.0527L8.08541 15.614ZM15.1417 13.5417H4.85861V14.7917H15.1417V13.5417ZM14.6461 7.39871L14.9335 9.93577L16.1756 9.79507L15.8882 7.25801L14.6461 7.39871ZM5.06682 9.93576L5.35422 7.39871L4.11217 7.25801L3.82477 9.79506L5.06682 9.93576ZM4.18938 11.9714C4.6766 11.3979 4.98162 10.6879 5.06682 9.93576L3.82477 9.79506C3.76714 10.3037 3.56116 10.7802 3.23677 11.162L4.18938 11.9714ZM14.9335 9.93577C15.0187 10.6879 15.3237 11.3979 15.8109 11.9714L16.7636 11.162C16.4392 10.7802 16.2332 10.3037 16.1756 9.79507L14.9335 9.93577ZM4.85861 13.5417C4.11962 13.5417 3.64954 12.6068 4.18938 11.9714L3.23677 11.162C2.05426 12.5539 2.98206 14.7917 4.85861 14.7917V13.5417ZM15.1417 14.7917C17.0183 14.7917 17.9461 12.5539 16.7636 11.162L15.8109 11.9714C16.3508 12.6068 15.8807 13.5417 15.1417 13.5417V14.7917ZM15.8882 7.25801C15.5422 4.20394 13.0234 1.875 10.0002 1.875V3.125C12.3587 3.125 14.3684 4.94748 14.6461 7.39871L15.8882 7.25801ZM5.35422 7.39871C5.6319 4.94748 7.64164 3.125 10.0002 3.125V1.875C6.97693 1.875 4.45813 4.20394 4.11217 7.25801L5.35422 7.39871ZM11.9149 15.614C11.646 16.3316 10.904 16.875 10.0002 16.875V18.125C11.4047 18.125 12.6265 17.2771 13.0854 16.0527L11.9149 15.614ZM10.0002 16.875C9.09634 16.875 8.35434 16.3316 8.08541 15.614L6.91491 16.0527C7.37379 17.2771 8.5956 18.125 10.0002 18.125V16.875Z" fill="#1A1A1A"/>
</svg>
