<svg width="20" height="20" viewBox="0 0 20 20" fill="none" xmlns="http://www.w3.org/2000/svg">
<path fill-rule="evenodd" clip-rule="evenodd" d="M18.3334 15.0003V5.80138C18.3334 5.78433 18.3331 5.76731 18.3326 5.75033H12.5V7.50033C12.5 8.88104 11.3807 10.0003 10 10.0003C8.61931 10.0003 7.50002 8.88104 7.50002 7.50033V5.75033H1.66747C1.66695 5.76731 1.66669 5.78433 1.66669 5.80138V15.0003C1.66669 16.8413 3.15907 18.3337 5.00002 18.3337H15C16.841 18.3337 18.3334 16.8413 18.3334 15.0003ZM15.0797 2.39744L17.3958 4.25033H2.6042L4.9203 2.39743C5.51135 1.9246 6.24572 1.66699 7.00263 1.66699L12.9974 1.667C13.7543 1.667 14.4887 1.92461 15.0797 2.39744Z" fill="white"/>
</svg>
