<svg width="20" height="20" viewBox="0 0 20 20" fill="none" xmlns="http://www.w3.org/2000/svg">
<path d="M18.3334 14.9998V5.80089C18.3334 5.29458 18.1032 4.81573 17.7078 4.49944L15.0797 2.39695C14.4887 1.92412 13.7543 1.66651 12.9974 1.66651L7.00263 1.6665C6.24572 1.6665 5.51135 1.92411 4.9203 2.39695L2.29219 4.49944C1.89684 4.81573 1.66669 5.29458 1.66669 5.80089V14.9998C1.66669 16.8408 3.15907 18.3332 5.00002 18.3332H15C16.841 18.3332 18.3334 16.8408 18.3334 14.9998Z" stroke="#999999" stroke-width="1.25" stroke-linejoin="round"/>
<path d="M7.5 5H12.5V7.5C12.5 8.88071 11.3807 10 10 10C8.61929 10 7.5 8.88071 7.5 7.5V5Z" stroke="#999999" stroke-width="1.25" stroke-linejoin="round"/>
<path d="M2.08331 5H17.9166" stroke="#999999" stroke-width="1.25" stroke-linecap="round" stroke-linejoin="round"/>
</svg>
