<svg width="20" height="20" viewBox="0 0 20 20" fill="none" xmlns="http://www.w3.org/2000/svg">
<path d="M12.7083 5.83333C12.7083 7.3291 11.4957 8.54167 9.99996 8.54167V9.79167C12.1861 9.79167 13.9583 8.01946 13.9583 5.83333H12.7083ZM9.99996 8.54167C8.50419 8.54167 7.29163 7.3291 7.29163 5.83333H6.04163C6.04163 8.01946 7.81383 9.79167 9.99996 9.79167V8.54167ZM7.29163 5.83333C7.29163 4.33756 8.50419 3.125 9.99996 3.125V1.875C7.81383 1.875 6.04163 3.64721 6.04163 5.83333H7.29163ZM9.99996 3.125C11.4957 3.125 12.7083 4.33756 12.7083 5.83333H13.9583C13.9583 3.64721 12.1861 1.875 9.99996 1.875V3.125ZM15.2083 14.5833C15.2083 15.0245 14.8344 15.5921 13.8452 16.0867C12.8934 16.5626 11.5348 16.875 9.99996 16.875V18.125C11.6868 18.125 13.2448 17.7845 14.4043 17.2047C15.5263 16.6437 16.4583 15.753 16.4583 14.5833H15.2083ZM9.99996 16.875C8.46512 16.875 7.10648 16.5626 6.15468 16.0867C5.16549 15.5921 4.79163 15.0245 4.79163 14.5833H3.54163C3.54163 15.753 4.4736 16.6437 5.59566 17.2047C6.75511 17.7845 8.31314 18.125 9.99996 18.125V16.875ZM4.79163 14.5833C4.79163 14.1422 5.16549 13.5745 6.15468 13.08C7.10648 12.6041 8.46512 12.2917 9.99996 12.2917V11.0417C8.31314 11.0417 6.75511 11.3822 5.59566 11.9619C4.4736 12.523 3.54163 13.4137 3.54163 14.5833H4.79163ZM9.99996 12.2917C11.5348 12.2917 12.8934 12.6041 13.8452 13.08C14.8344 13.5745 15.2083 14.1422 15.2083 14.5833H16.4583C16.4583 13.4137 15.5263 12.523 14.4043 11.9619C13.2448 11.3822 11.6868 11.0417 9.99996 11.0417V12.2917Z" fill="#999999"/>
</svg>
