<svg width="20" height="20" viewBox="0 0 20 20" fill="none" xmlns="http://www.w3.org/2000/svg">
<path d="M12.7084 5.83333C12.7084 7.3291 11.4958 8.54167 10 8.54167V9.79167C12.1861 9.79167 13.9584 8.01946 13.9584 5.83333H12.7084ZM10 8.54167C8.50425 8.54167 7.29169 7.3291 7.29169 5.83333H6.04169C6.04169 8.01946 7.81389 9.79167 10 9.79167V8.54167ZM7.29169 5.83333C7.29169 4.33756 8.50425 3.125 10 3.125V1.875C7.81389 1.875 6.04169 3.64721 6.04169 5.83333H7.29169ZM10 3.125C11.4958 3.125 12.7084 4.33756 12.7084 5.83333H13.9584C13.9584 3.64721 12.1861 1.875 10 1.875V3.125ZM15.2084 14.5833C15.2084 15.0245 14.8345 15.5921 13.8453 16.0867C12.8935 16.5626 11.5349 16.875 10 16.875V18.125C11.6868 18.125 13.2449 17.7845 14.4043 17.2047C15.5264 16.6437 16.4584 15.753 16.4584 14.5833H15.2084ZM10 16.875C8.46518 16.875 7.10654 16.5626 6.15474 16.0867C5.16555 15.5921 4.79169 15.0245 4.79169 14.5833H3.54169C3.54169 15.753 4.47366 16.6437 5.59572 17.2047C6.75517 17.7845 8.3132 18.125 10 18.125V16.875ZM4.79169 14.5833C4.79169 14.1422 5.16555 13.5745 6.15474 13.08C7.10654 12.6041 8.46518 12.2917 10 12.2917V11.0417C8.3132 11.0417 6.75517 11.3822 5.59572 11.9619C4.47366 12.523 3.54169 13.4137 3.54169 14.5833H4.79169ZM10 12.2917C11.5349 12.2917 12.8935 12.6041 13.8453 13.08C14.8345 13.5745 15.2084 14.1422 15.2084 14.5833H16.4584C16.4584 13.4137 15.5264 12.523 14.4043 11.9619C13.2449 11.3822 11.6868 11.0417 10 11.0417V12.2917Z" fill="#1A1A1A"/>
</svg>
