<svg width="28" height="28" viewBox="0 0 28 28" fill="none" xmlns="http://www.w3.org/2000/svg">
<path d="M10.768 19.6665L19.668 13.9998L10.768 8.33317V19.6665ZM14.0013 27.3332C12.1791 27.3332 10.4569 26.9832 8.83463 26.2832C7.21241 25.5832 5.79575 24.6276 4.58464 23.4165C3.37352 22.2054 2.41797 20.7887 1.71797 19.1665C1.01797 17.5443 0.667969 15.8221 0.667969 13.9998C0.667969 12.1554 1.01797 10.4221 1.71797 8.79984C2.41797 7.17761 3.37352 5.7665 4.58464 4.5665C5.79575 3.3665 7.21241 2.4165 8.83463 1.7165C10.4569 1.0165 12.1791 0.666504 14.0013 0.666504C15.8457 0.666504 17.5791 1.0165 19.2013 1.7165C20.8235 2.4165 22.2346 3.3665 23.4346 4.5665C24.6346 5.7665 25.5846 7.17761 26.2846 8.79984C26.9846 10.4221 27.3346 12.1554 27.3346 13.9998C27.3346 15.8221 26.9846 17.5443 26.2846 19.1665C25.5846 20.7887 24.6346 22.2054 23.4346 23.4165C22.2346 24.6276 20.8235 25.5832 19.2013 26.2832C17.5791 26.9832 15.8457 27.3332 14.0013 27.3332ZM14.0013 25.3332C17.1569 25.3332 19.8346 24.2276 22.0346 22.0165C24.2346 19.8054 25.3346 17.1332 25.3346 13.9998C25.3346 10.8443 24.2346 8.1665 22.0346 5.9665C19.8346 3.7665 17.1569 2.6665 14.0013 2.6665C10.868 2.6665 8.19575 3.7665 5.98463 5.9665C3.77352 8.1665 2.66797 10.8443 2.66797 13.9998C2.66797 17.1332 3.77352 19.8054 5.98463 22.0165C8.19575 24.2276 10.868 25.3332 14.0013 25.3332Z" fill="white"/>
</svg>
