<svg width="18" height="18" viewBox="0 0 18 18" fill="none" xmlns="http://www.w3.org/2000/svg">
<path fill-rule="evenodd" clip-rule="evenodd" d="M17.3333 8.99984C17.3333 13.6022 13.6024 17.3332 9 17.3332C4.39762 17.3332 0.666664 13.6022 0.666664 8.99984C0.666664 4.39746 4.39762 0.666504 9 0.666504C13.6024 0.666504 17.3333 4.39746 17.3333 8.99984ZM4.91666 8.99984C4.91666 8.58562 5.25245 8.24984 5.66666 8.24984H8.25V5.6665C8.25 5.25229 8.58578 4.9165 9 4.9165C9.41421 4.9165 9.75 5.25229 9.75 5.6665V8.24984H12.3333C12.7475 8.24984 13.0833 8.58562 13.0833 8.99984C13.0833 9.41405 12.7475 9.74984 12.3333 9.74984H9.75V12.3332C9.75 12.7474 9.41421 13.0832 9 13.0832C8.58578 13.0832 8.25 12.7474 8.25 12.3332V9.74984H5.66666C5.25245 9.74984 4.91666 9.41405 4.91666 8.99984Z" fill="white"/>
</svg>
