<svg width="20" height="20" viewBox="0 0 20 20" fill="none" xmlns="http://www.w3.org/2000/svg">
<path d="M18.3334 15.0001V5.80113C18.3334 5.29483 18.1033 4.81597 17.7079 4.49969L15.0798 2.39719C14.4888 1.92436 13.7544 1.66676 12.9975 1.66676L7.00269 1.66675C6.24578 1.66675 5.51141 1.92435 4.92037 2.39719L2.29225 4.49969C1.8969 4.81597 1.66675 5.29483 1.66675 5.80113V15.0001C1.66675 16.841 3.15913 18.3334 5.00008 18.3334H15.0001C16.841 18.3334 18.3334 16.841 18.3334 15.0001Z" stroke="#999999" stroke-width="1.25" stroke-linejoin="round"/>
<path d="M7.5 5H12.5V7.5C12.5 8.88071 11.3807 10 10 10C8.61929 10 7.5 8.88071 7.5 7.5V5Z" stroke="#999999" stroke-width="1.25" stroke-linejoin="round"/>
<path d="M2.08325 5H17.9166" stroke="#999999" stroke-width="1.25" stroke-linecap="round" stroke-linejoin="round"/>
</svg>
