<svg width="20" height="20" viewBox="0 0 20 20" fill="none" xmlns="http://www.w3.org/2000/svg">
<path d="M18.3333 14.9998V5.80089C18.3333 5.29458 18.1031 4.81573 17.7078 4.49944L15.0797 2.39695C14.4886 1.92412 13.7543 1.66651 12.9974 1.66651L7.00257 1.6665C6.24566 1.6665 5.51129 1.92411 4.92024 2.39695L2.29213 4.49944C1.89677 4.81573 1.66663 5.29458 1.66663 5.80089V14.9998C1.66663 16.8408 3.15901 18.3332 4.99996 18.3332H15C16.8409 18.3332 18.3333 16.8408 18.3333 14.9998Z" stroke="white" stroke-width="1.25" stroke-linejoin="round"/>
<path d="M7.5 5H12.5V7.5C12.5 8.88071 11.3807 10 10 10C8.61929 10 7.5 8.88071 7.5 7.5V5Z" stroke="white" stroke-width="1.25" stroke-linejoin="round"/>
<path d="M2.08337 5H17.9167" stroke="white" stroke-width="1.25" stroke-linecap="round" stroke-linejoin="round"/>
</svg>
