<svg width="66" height="80" viewBox="0 0 66 80" fill="none" xmlns="http://www.w3.org/2000/svg">
<path d="M65.8634 27.5753C65.4054 24.9777 63.7444 22.9107 61.3061 21.9042L60.0628 21.3911C57.8607 20.4821 56.5919 18.2844 56.9056 15.9227L57.0829 14.589C57.4303 11.9745 56.4708 9.50257 54.4502 7.80689C52.4293 6.11137 49.8279 5.59588 47.314 6.39192L46.0316 6.79794C43.7603 7.51747 41.3755 6.6495 40.0977 4.6381L39.3766 3.50337C37.9621 1.27699 35.638 0 33.0002 0C30.3626 0 28.0384 1.27699 26.6239 3.50337L25.9027 4.63842C24.6249 6.6495 22.2401 7.51747 19.9687 6.7981L18.6864 6.39208C16.1718 5.5962 13.5708 6.11184 11.5502 7.80705C9.52961 9.50257 8.57008 11.9745 8.91765 14.5891L9.09492 15.9225C9.40874 18.2844 8.13999 20.4819 5.93737 21.3911L4.69397 21.9045C2.25595 22.9109 0.594957 24.9779 0.13666 27.5756C-0.321162 30.173 0.532699 32.6834 2.47963 34.4632L3.47258 35.3708C5.23131 36.9782 5.67187 39.4774 4.56913 41.5895L3.94656 42.7816C2.72565 45.12 2.78189 47.7711 4.1007 50.0553C5.41967 52.3398 7.68755 53.7141 10.3228 53.8257L11.6663 53.8826C11.6719 53.8828 11.6773 53.8837 11.6828 53.884L4.21809 71.4701C4.03559 71.9 4.12193 72.397 4.4386 72.7401C4.75527 73.0834 5.24383 73.2095 5.68676 73.0617L15.8257 69.689L20.4426 79.3251C20.6404 79.7381 21.0575 80 21.5139 80C21.523 80 21.532 79.9998 21.541 79.9997C22.0079 79.9892 22.4253 79.706 22.6078 79.2762L29.4867 63.0701L29.843 62.796C31.7314 61.3434 34.2689 61.3434 36.1574 62.796L36.5134 63.0698L43.3926 79.276C43.5751 79.706 43.9925 79.9891 44.4594 79.9995C44.4684 79.9997 44.4774 79.9998 44.4864 79.9998C44.9427 79.9998 45.3599 79.7381 45.5578 79.325L50.1747 69.6889L60.3134 73.0615C60.7562 73.2093 61.2449 73.0832 61.5616 72.74C61.8784 72.3968 61.9646 71.8999 61.7821 71.4699L54.3169 53.8836C54.3226 53.8832 54.3282 53.8825 54.3337 53.8821L55.6771 53.8253C58.3125 53.7136 60.5804 52.3393 61.8992 50.055C63.2182 47.7706 63.2746 45.1195 62.0536 42.7815L61.4311 41.5891C60.3285 39.4769 60.7691 36.9779 62.5275 35.3705L63.5203 34.4629C65.4673 32.6834 66.3212 30.173 65.8634 27.5753ZM21.4487 75.9254L17.5161 67.7175C17.2576 67.1775 16.6373 66.9141 16.0697 67.1035L7.43361 69.9764L13.9889 54.5334C15.2441 55.2314 16.1729 56.4399 16.504 57.9411L16.7936 59.2547C17.3614 61.8307 19.1085 63.8254 21.587 64.7274C22.4544 65.0432 23.3389 65.1987 24.2124 65.1987C24.8546 65.1987 25.4903 65.1132 26.1088 64.9467L21.4487 75.9254ZM58.5664 69.9764L49.9306 67.1037C49.363 66.9147 48.7428 67.1778 48.4841 67.7177L44.5515 75.9255L39.8905 64.9448C41.3503 65.3381 42.9077 65.2754 44.4133 64.7276C46.8918 63.8254 48.6392 61.8307 49.2069 59.2548L49.4965 57.9412C49.8273 56.4398 50.7559 55.2312 52.0112 54.5334L58.5664 69.9764ZM61.9173 32.7089L60.9245 33.6165C58.3589 35.9615 57.7162 39.6073 59.3248 42.6886L59.9474 43.8812C60.7965 45.5075 60.7589 47.2779 59.8415 48.8668C58.9241 50.4556 57.4095 51.3735 55.5767 51.4511L54.2333 51.508C50.7603 51.6551 47.9242 54.0349 47.1762 57.4297L46.8866 58.7433C46.4917 60.5348 45.3248 61.8671 43.6007 62.4946C41.8769 63.1219 40.1265 62.8515 38.6726 61.7329L37.6064 60.9126C34.8513 58.7929 31.1491 58.7932 28.3941 60.9126L27.3281 61.7329C25.8738 62.8515 24.1237 63.1222 22.3999 62.4946C20.6762 61.8671 19.5093 60.535 19.1144 58.7433L18.8248 57.4295C18.0763 54.035 15.2403 51.6554 11.7677 51.5081L10.4242 51.4512C8.59131 51.3736 7.0767 50.4558 6.15931 48.8668C5.24209 47.2783 5.20454 45.5075 6.05365 43.8812L6.67622 42.6891C8.2851 39.6078 7.64224 35.9617 5.07654 33.6165L4.08359 32.7089C2.72945 31.4712 2.15915 29.7945 2.47757 27.988C2.7963 26.1812 3.90569 24.8006 5.60153 24.1006L6.84478 23.5872C10.0579 22.2609 11.909 19.0547 11.451 15.6092L11.2738 14.2758C11.032 12.4573 11.6728 10.8063 13.0781 9.62709C14.0454 8.81537 15.17 8.39937 16.3474 8.39937C16.8804 8.39937 17.4246 8.48475 17.9697 8.65727L19.2519 9.06313C22.5655 10.1131 26.0446 8.84657 27.9087 5.9124L28.63 4.77735C29.6136 3.22915 31.1657 2.37624 33.0002 2.37624C34.8348 2.37624 36.387 3.22915 37.3707 4.77766L38.0918 5.91255C39.9559 8.84657 43.435 10.1125 46.7486 9.06345L48.0312 8.65743C49.7797 8.1036 51.5171 8.448 52.9226 9.62725C54.328 10.8067 54.9688 12.4575 54.7272 14.276L54.55 15.6097C54.0921 19.0552 55.9431 22.2614 59.1561 23.5875L60.3992 24.1006C62.0952 24.8006 63.2045 26.1812 63.523 27.9878C63.8417 29.7947 63.2714 31.4712 61.9173 32.7089ZM33.0002 12.5982C21.9705 12.5982 12.9972 21.5715 12.9972 32.6012C12.9972 43.6309 21.9705 52.604 33.0002 52.604C44.0299 52.604 53.0032 43.6307 53.0032 32.601C53.0032 21.5713 44.0299 12.5982 33.0002 12.5982ZM33.0002 50.2278C23.2807 50.2278 15.3734 42.3205 15.3734 32.601C15.3734 22.8816 23.2807 14.9743 33.0002 14.9743C42.7196 14.9743 50.627 22.8816 50.627 32.601C50.627 42.3205 42.7196 50.2278 33.0002 50.2278ZM43.8045 23.4557C43.0022 22.7693 41.9817 22.4368 40.9278 22.5182C39.8751 22.6001 38.9173 23.087 38.2314 23.8885L30.6382 32.7469L27.7066 29.482C26.2472 27.8608 23.7408 27.7286 22.1192 29.188C21.3338 29.8948 20.8706 30.8654 20.815 31.9206C20.7594 32.9755 21.1179 33.9889 21.8243 34.7742L27.7645 41.3896C28.517 42.2254 29.5801 42.697 30.7009 42.697C30.7502 42.697 30.7998 42.6961 30.8492 42.6942C32.0167 42.6509 33.0963 42.1023 33.8162 41.1878L44.238 29.0292C45.6552 27.3731 45.4607 24.8729 43.8045 23.4557ZM42.4332 27.4837L31.9944 39.6619C31.9816 39.6768 31.9691 39.6922 31.957 39.7079C31.6696 40.0792 31.2337 40.3021 30.7613 40.3197C30.2873 40.3358 29.8483 40.1527 29.5318 39.8012L23.5925 33.1869C23.5922 33.1865 23.5919 33.1862 23.5916 33.1857C23.3093 32.8721 23.1659 32.4672 23.1882 32.0458C23.2104 31.6242 23.3954 31.2368 23.7091 30.9543C24.0107 30.6829 24.3889 30.5494 24.7656 30.5494C25.1979 30.5494 25.6286 30.7252 25.9396 31.0707L29.7752 35.3423C30.0036 35.5967 30.3295 35.738 30.6729 35.7366C31.0149 35.7326 31.3387 35.5815 31.5613 35.3217L40.0365 25.4341C40.6018 24.7735 41.5992 24.6959 42.2597 25.2613C42.5797 25.5352 42.774 25.9171 42.8066 26.3371C42.8392 26.7571 42.7063 27.1645 42.4332 27.4837Z" fill="#178275"/>
</svg>
