<svg width="65" height="50" viewBox="0 0 65 50" fill="none" xmlns="http://www.w3.org/2000/svg">
<path d="M0 50V36.2464C0 32.1872 0.759401 27.9131 2.2782 23.4241C3.79701 18.935 5.90909 14.6371 8.61446 10.5301C11.3198 6.42311 14.4998 2.91308 18.1544 0L28.6911 7.59311C25.7959 11.8434 23.3279 16.2846 21.287 20.9169C19.2461 25.5492 18.2256 30.5874 18.2256 36.0315V50H0ZM36.3089 50V36.2464C36.3089 32.1872 37.0683 27.9131 38.5871 23.4241C40.1059 18.935 42.218 14.6371 44.9233 10.5301C47.6287 6.42311 50.8087 2.91308 54.4633 0L65 7.59311C62.1048 11.8434 59.6367 16.2846 57.5958 20.9169C55.555 25.5492 54.5345 30.5874 54.5345 36.0315V50H36.3089Z" fill="#072723"/>
</svg>
