<svg width="80" height="80" viewBox="0 0 80 80" fill="none" xmlns="http://www.w3.org/2000/svg">
<g clip-path="url(#clip0_1695_20421)">
<path d="M23.625 65.25C23.5 65.25 23.375 65.25 23.25 65.25C9.375 60.75 0 48 0 33.375C0 30.875 0.25 28.5 0.75 26.375C3.125 15.125 11.125 6 22 2C25.5 0.75 29.25 0 33.25 0C40.75 0 48 2.5 53.75 7C57.125 9.5 60 12.75 62.25 16.75C65.125 21.875 66.625 27.375 66.625 33.375C66.625 34.25 66.625 35.125 66.5 36C66.375 36.625 65.75 37.125 65.125 37C64.5 36.875 64 36.25 64.125 35.625C64.25 34.875 64.25 34.125 64.25 33.25C64.25 27.75 62.875 22.5 60.125 17.875C58 14.25 55.25 11.125 52.25 8.875C47 4.75 40.25 2.5 33.375 2.5C29.625 2.5 26.125 3.125 22.875 4.25C12.75 8 5.375 16.375 3.125 26.875C2.75 28.875 2.5 31.125 2.5 33.375C2.5 46.875 11.125 58.75 24 62.875C24.625 63.125 25 63.75 24.75 64.375C24.625 64.875 24.125 65.25 23.625 65.25Z" fill="#178275"/>
<path d="M25.75 8.125C25.375 8.125 25 7.875 24.75 7.625C24.5 7.25 24.25 6.75 24 6.5C23.875 6.375 23.875 6.125 23.875 6C23.875 5.375 24.375 4.75 25.125 4.75C25.625 4.75 26 5 26.25 5.375C26.5 5.625 26.75 6 26.875 6.375C27 6.625 27.125 6.75 27.125 7C27 7.5 26.5 8.125 25.75 8.125Z" fill="#178275"/>
<path d="M25.125 7C24.875 7 24.75 7 24.5 6.875C24.25 6.75 24 6.625 23.875 6.375C23.875 6.125 23.75 5.875 23.75 5.625C23.75 5.375 23.875 5 24.125 4.75C24.625 4.25 25.375 4.25 25.875 4.75C26.125 5 26.375 5.375 26.375 5.75C26.375 6.375 25.875 7 25.125 7Z" fill="#178275"/>
<path d="M13.125 42.4999C10.625 42.4999 8.75002 40.4999 7.87502 38.4999C7.25002 36.8749 7.12502 35.3749 7.00002 33.7499C7.00002 33.2499 6.87502 32.7499 6.87502 32.2499C6.75002 31.3749 6.37502 30.1249 5.75002 29.2499C5.37502 28.7499 5.50002 27.9999 6.00002 27.4999C6.50002 27.1249 7.25002 27.2499 7.75002 27.7499C8.62502 28.9999 9.12502 30.6249 9.37502 31.8749C9.50002 32.4999 9.50002 32.9999 9.50002 33.4999C9.50002 34.8749 9.62502 36.2499 10.125 37.4999C10.625 38.8749 12 40.1249 13.375 39.9999C15 39.7499 15.875 37.3749 16.125 35.4999C16.125 34.8749 16.25 34.3749 16.25 33.7499C16.375 31.7499 16.5 29.6249 17.75 27.7499C18.875 26.1249 20.875 24.9999 23.25 24.8749C25.125 24.8749 27.125 25.3749 29.125 26.2499L29.625 26.4999C30.625 26.9999 31.625 27.4999 32.625 27.4999C33.125 27.4999 33.625 27.2499 34 26.8749C34.25 26.6249 34.125 26.4999 34.125 26.3749C34 25.8749 33.125 25.3749 32.75 25.1249C31.25 24.2499 30.625 22.6249 31.125 21.2499C31.875 19.7499 33.375 19.6249 34.5 19.4999C35 19.4999 35.75 19.3749 35.875 19.2499C35.875 19.1249 35.75 18.7499 35.5 18.4999C35.5 18.4999 35.5 18.3749 35.375 18.3749C35.25 18.2499 35.125 18.1249 35 17.8749C34.5 17.3749 34 16.7499 33.75 15.8749C33.5 14.9999 33.75 14.2499 33.875 13.6249C34 13.2499 34 12.8749 34 12.6249C33.875 11.4999 32.375 10.7499 31.125 10.7499C29.75 10.8749 28.25 11.8749 26.875 12.8749C26.5 13.1249 25.875 13.2499 25.5 12.8749C25.125 12.6249 24.875 12.1249 25 11.6249C25.125 9.99994 25.25 8.49994 24.875 7.49994C24.625 6.87494 25 6.24994 25.625 5.99994C26.25 5.74994 27 6.12494 27.125 6.74994C27.375 7.62494 27.5 8.49994 27.5 9.62494C28.5 9.12494 29.5 8.62494 30.625 8.62494C33.125 8.49994 35.875 9.99994 36 12.6249C36.125 13.2499 36 13.8749 35.875 14.3749C35.75 14.7499 35.75 15.1249 35.75 15.3749C35.875 15.6249 36.125 15.9999 36.5 16.2499C36.625 16.4999 36.875 16.6249 37 16.8749C38.125 17.9999 38.375 19.3749 37.75 20.4999C37 21.8749 35.5 21.9999 34.5 21.9999C34 21.9999 33.25 22.1249 33.125 22.2499C33.125 22.3749 33.25 22.7499 33.75 23.1249C34.75 23.7499 35.875 24.6249 36.25 25.8749C36.5 26.7499 36.25 27.7499 35.75 28.4999C35 29.3749 33.75 29.9999 32.5 29.9999C30.875 29.9999 29.625 29.3749 28.375 28.7499L27.875 28.4999C26.25 27.7499 24.75 27.3749 23.125 27.3749C22 27.4999 20.375 27.9999 19.5 29.2499C18.625 30.4999 18.5 32.2499 18.5 33.9999C18.5 34.6249 18.375 35.2499 18.375 35.8749C18.125 38.7499 16.625 42.1249 13.625 42.6249C13.5 42.4999 13.25 42.4999 13.125 42.4999Z" fill="#178275"/>
<path d="M29.125 37.375C29 37.375 29 37.375 28.875 37.375C28.25 37.25 27.75 36.625 27.875 36C28 35.625 28 35.25 28 35C28 34.875 27.875 34.75 27.875 34.5C27.875 33.875 28.375 33.25 29.125 33.25C29.5 33.25 29.875 33.375 30.125 33.75C30.25 33.875 30.75 34.375 30.375 36.375C30.25 36.875 29.75 37.375 29.125 37.375Z" fill="#178275"/>
<path d="M32.5 36.7501C32.25 36.7501 32 36.6251 31.75 36.5001C31 35.8751 30.125 35.6251 29.375 35.7501C28.75 35.8751 28.125 35.5001 28 34.7501C27.875 34.1251 28.25 33.5001 29 33.3751C30.5 33.1251 32.125 33.5001 33.375 34.6251C33.875 35.0001 34 35.8751 33.5 36.3751C33.125 36.6251 32.875 36.7501 32.5 36.7501Z" fill="#178275"/>
<path d="M53.875 36.75C53.75 36.75 53.75 36.75 53.625 36.75C53 36.625 52.5 36 52.625 35.375C52.625 35.125 52.625 34.875 52.375 34.5C52.25 34.375 51.875 34.375 51.375 34.25C51 34.125 50.5 34.125 50 33.875C49 33.25 48.375 32.375 48.125 31.125C48 29.875 48.375 28.5 49.375 27.75C50.875 26.25 53.625 26.25 55.25 27.25C57 28.125 58 29.5 59.125 30.75L59.625 31.375C60.25 32.25 60.875 33.25 61.625 34C62.125 34.5 62.125 35.25 61.625 35.75C61.125 36.25 60.375 36.25 59.875 35.75C59 34.875 58.25 33.75 57.625 32.75L57.25 32.125C56.375 31 55.5 29.875 54.25 29.25C53.25 28.75 51.875 28.625 51.125 29.375C50.75 29.75 50.625 30.25 50.625 30.75C50.625 30.875 50.75 31.375 51.125 31.625C51.25 31.625 51.5 31.75 51.875 31.75C52.5 31.875 53.375 32 54 32.625C54.875 33.5 55.25 34.5 55 35.625C55 36.25 54.5 36.75 53.875 36.75Z" fill="#178275"/>
<path d="M56.875 21.8749C56.5 21.8749 56.25 21.8749 55.875 21.7499H55.75C54.875 21.3749 54.25 20.7499 53.75 20.2499C53.375 19.8749 53 19.4999 52.75 19.3749C52.375 19.2499 51.875 19.3749 51.375 19.3749C50.5 19.4999 49.5 19.4999 48.625 18.9999C47.375 18.2499 47.25 16.8749 47.125 15.8749C47 14.7499 46.875 13.3749 47.125 11.9999C47.125 11.4999 47.375 10.9999 47.5 10.7499C47.5 10.6249 47.625 10.6249 47.625 10.4999C47.875 9.87494 48.5 9.49994 49.125 9.74994C49.75 9.99994 50.125 10.6249 49.875 11.2499C49.875 11.3749 49.75 11.4999 49.75 11.6249C49.625 11.7499 49.625 11.9999 49.625 12.1249V12.3749C49.375 13.2499 49.5 14.2499 49.625 15.4999C49.75 16.1249 49.875 16.8749 50.125 16.9999C50.25 17.1249 50.875 16.9999 51.25 16.9999C51.875 16.8749 52.75 16.8749 53.5 17.1249C54.5 17.3749 55.125 18.1249 55.625 18.7499C56 19.1249 56.25 19.4999 56.625 19.6249H57.375C58 19.4999 58.625 19.8749 58.875 20.4999C59 21.1249 58.625 21.7499 58 21.9999C57.5 21.8749 57.125 21.8749 56.875 21.8749Z" fill="#178275"/>
<path d="M76.375 76.375H74C73.375 76.375 72.75 75.875 72.75 75.125V74.625C72.75 72.875 71.375 71.625 69.75 71.625C68.125 71.625 66.75 73 66.75 74.625V75.125C66.75 75.75 66.25 76.375 65.5 76.375H43.5C42.875 76.375 42.25 75.875 42.25 75.125V74.625C42.25 72.875 40.875 71.625 39.25 71.625C37.5 71.625 36.25 73 36.25 74.625V75.125C36.25 75.75 35.75 76.375 35 76.375H30.625C28.625 76.375 27 74.75 27 72.75V67.625C27 67 27.5 66.375 28.25 66.375H64.875V50.875C64.875 50.25 65.375 49.625 66.125 49.625H70.125C71.375 49.625 72.625 50.125 73.5 51L78.375 55.875C79.375 56.75 80 57.875 80 59.25V72.75C80 74.75 78.375 76.375 76.375 76.375ZM75.125 73.875H76.375C77.125 73.875 77.5 73.25 77.5 72.75V59.25C77.5 58.625 77.25 58.125 76.625 57.625L71.625 52.625C71.25 52.25 70.625 52 70 52H67.25V67.5C67.25 68.125 66.75 68.75 66 68.75H29.5V72.625C29.5 73.375 30.125 73.75 30.625 73.75H33.875C34.25 71 36.5 69 39.25 69C42 69 44.375 71 44.625 73.75H64.25C64.625 71 66.875 69 69.625 69C72.625 69.125 74.875 71.25 75.125 73.875Z" fill="#178275"/>
<path d="M66.375 68.875H28.5C27.875 68.875 27.25 68.375 27.25 67.625V43.875C27.25 41.25 29.375 39.125 32 39.125H62.875C65.5 39.125 67.625 41.125 67.625 43.875V67.625C67.625 68.25 67 68.875 66.375 68.875ZM29.75 66.375H65.25V43.875C65.25 42.5 64.25 41.625 63 41.625H32C30.75 41.625 29.75 42.625 29.75 43.875V66.375Z" fill="#178275"/>
<path d="M39.375 80C36.375 80 33.875 77.5 33.875 74.5C33.875 71.5 36.375 69 39.375 69C42.375 69 44.875 71.5 44.875 74.5C44.875 77.5 42.375 80 39.375 80ZM39.375 71.5C37.75 71.5 36.375 72.875 36.375 74.5C36.375 76.125 37.75 77.5 39.375 77.5C41 77.5 42.375 76.125 42.375 74.5C42.375 72.875 41 71.5 39.375 71.5Z" fill="#178275"/>
<path d="M70 80C67 80 64.5 77.5 64.5 74.5C64.5 71.5 67 69 70 69C73 69 75.5 71.5 75.5 74.5C75.5 77.5 73 80 70 80ZM70 71.5C68.375 71.5 67 72.875 67 74.5C67 76.125 68.375 77.5 70 77.5C71.625 77.5 73 76.125 73 74.5C73 72.875 71.625 71.5 70 71.5Z" fill="#178275"/>
</g>
<defs>
<clipPath id="clip0_1695_20421">
<rect width="80" height="80" fill="white"/>
</clipPath>
</defs>
</svg>
