<svg width="81" height="80" viewBox="0 0 81 80" fill="none" xmlns="http://www.w3.org/2000/svg">
<path d="M61.6854 71.3407L61.5733 70.7799C61.3957 69.8924 61.0399 69.0501 60.5273 68.304C60.0147 67.558 59.3561 66.9238 58.5912 66.4398C57.8263 65.9558 56.9712 65.632 56.0775 65.4882C55.1839 65.3443 54.2704 65.3834 53.3922 65.6029L46.6994 67.276L54.3245 64.0989C54.5925 63.9873 54.8169 63.7915 54.9638 63.541C55.1107 63.2906 55.1722 62.9992 55.139 62.7108C55.1057 62.4224 54.9795 62.1526 54.7795 61.9422C54.5794 61.7318 54.3164 61.5922 54.03 61.5445L48.6912 60.6547C48.0672 60.5497 47.4766 60.2991 46.9676 59.9231C46.4585 59.5471 46.0453 59.0564 45.7615 58.4908L45.2727 57.5132H55.6068C56.134 57.5117 56.6564 57.6148 57.1435 57.8166C57.6306 58.0184 58.0728 58.3148 58.4446 58.6887L60.488 60.7321C61.17 61.4147 61.9918 61.9415 62.8968 62.2762C63.8018 62.611 64.7686 62.7458 65.7306 62.6714L80.6673 61.5224L80.462 58.8548L75.7375 59.2182C79.0748 53.0449 80.7351 46.1044 80.5526 39.0891C80.3701 32.0738 78.3513 25.229 74.6975 19.2375C71.0438 13.2461 65.8828 8.31742 59.7295 4.94328C53.5763 1.56914 46.6458 -0.132521 39.6295 0.00805466C32.6133 0.148631 25.7565 2.12653 19.7434 5.74444C13.7302 9.36234 8.77078 14.4938 5.35995 20.6268C1.94911 26.7598 0.206083 33.68 0.304747 40.6969C0.403412 47.7139 2.34032 54.5823 5.92224 60.617L0.403418 60.1925L0.198153 62.8602L14.7675 63.9809C15.8543 64.065 16.9451 63.882 17.9448 63.4479C18.9446 63.0138 19.823 62.3417 20.5035 61.4903L22.4802 59.0194C22.8552 58.5483 23.3319 58.1682 23.8746 57.9073C24.4172 57.6465 25.0119 57.5117 25.614 57.5132H35.5928L35.1039 58.4908C34.8201 59.0564 34.4069 59.5472 33.8978 59.9231C33.3888 60.2991 32.7982 60.5497 32.1741 60.6547L26.8354 61.5445C26.5491 61.5922 26.286 61.7318 26.086 61.9422C25.8859 62.1526 25.7597 62.4224 25.7265 62.7108C25.6932 62.9992 25.7547 63.2906 25.9016 63.541C26.0485 63.7914 26.2729 63.9873 26.5409 64.0989L40.9574 70.1058C42.2862 70.6561 43.7563 70.7664 45.1523 70.4205L54.0412 68.1983C54.5668 68.0669 55.1137 68.0433 55.6487 68.1289C56.1838 68.2145 56.6959 68.4076 57.1543 68.6966C57.6127 68.9855 58.0079 69.3642 58.3159 69.81C58.624 70.2558 58.8386 70.7593 58.9468 71.2902L38.9897 77.1599C38.2038 77.3924 37.3654 77.3774 36.5883 77.117L19.5427 71.4354C18.3751 71.0459 17.1227 70.9864 15.9235 71.2633L0 74.938L0.601588 77.5448L16.5252 73.8702C17.2447 73.7042 17.9961 73.7399 18.6966 73.9735L35.7422 79.6551C37.0374 80.0891 38.4348 80.1141 39.7447 79.7266L59.9727 73.7773C60.1443 73.7864 60.3152 73.8065 60.4843 73.8375L80.3182 77.5563L80.8111 74.9265L61.6854 71.3407ZM77.2889 46.8113H73.9096C73.299 46.8096 72.694 46.9291 72.1298 47.1628C71.5656 47.3965 71.0534 47.7397 70.6227 48.1727L70.5554 48.24C70.2795 48.5159 69.928 48.7038 69.5452 48.7799C69.1625 48.8561 68.7658 48.817 68.4053 48.6677C68.0448 48.5184 67.7367 48.2655 67.5199 47.941C67.3031 47.6166 67.1874 47.2352 67.1873 46.8449C67.1866 46.5858 67.2373 46.329 67.3365 46.0895C67.4357 45.8501 67.5814 45.6327 67.7652 45.4499L69.8055 43.4095C70.6759 42.537 71.1647 41.3549 71.1647 40.1225C71.1647 38.8902 70.6758 37.7081 69.8054 36.8356L69.1029 36.1331C68.9191 35.9504 68.7734 35.7329 68.6743 35.4935C68.5751 35.254 68.5244 34.9973 68.5251 34.7381V32.1299C68.5244 31.8707 68.5751 31.614 68.6743 31.3745C68.7734 31.135 68.9191 30.9176 69.1029 30.7348L74.7567 25.081C77.7334 31.914 78.6146 39.4769 77.2889 46.8113ZM69.2086 16.1436L68.6874 16.6648C67.9342 17.4163 66.9137 17.8384 65.8497 17.8384C64.7857 17.8385 63.7651 17.4165 63.0119 16.665C62.3923 16.0419 61.6552 15.5479 60.8434 15.2116C60.0315 14.8752 59.161 14.7033 58.2823 14.7058H56.0265C55.4992 14.7072 54.9769 14.6041 54.4898 14.4023C54.0027 14.2005 53.5604 13.9041 53.1887 13.5302L50.9723 11.3141C50.5985 10.9422 50.3021 10.5 50.1004 10.0128C49.8986 9.52569 49.7954 9.00339 49.7968 8.47612V3.84167C56.281 5.50781 62.1959 8.89171 66.9185 13.637C67.7241 14.4426 68.4875 15.2782 69.2086 16.1436ZM39.8718 2.67299L37.791 4.75393C37.3548 5.18763 37.009 5.70357 36.7735 6.27186C36.5381 6.84015 36.4178 7.4495 36.4195 8.06462V12.6992C36.4189 13.2312 36.2073 13.7412 35.8312 14.1174C35.455 14.4936 34.9449 14.7052 34.4129 14.7058H33.7916C33.528 14.7065 33.2668 14.6549 33.0233 14.554C32.7797 14.4531 32.5586 14.305 32.3727 14.118C31.4939 13.2414 30.3033 12.749 29.062 12.749C27.8207 12.749 26.6301 13.2414 25.7513 14.118L24.4137 15.4558C24.2277 15.6427 24.0066 15.7909 23.763 15.8917C23.5195 15.9926 23.2583 16.0442 22.9947 16.0435H19.0765C18.8129 16.0442 18.5518 15.9926 18.3082 15.8918C18.0647 15.7909 17.8436 15.6427 17.6577 15.4558L14.9114 12.7094C21.6869 6.36526 30.5905 2.78516 39.8718 2.67299ZM7.42445 22.3836L9.38787 24.347C9.52716 24.4863 9.63765 24.6516 9.71304 24.8336C9.78842 25.0156 9.82722 25.2106 9.82722 25.4076C9.82722 25.6046 9.78842 25.7996 9.71304 25.9816C9.63765 26.1636 9.52716 26.3289 9.38787 26.4682C9.00013 26.856 8.69255 27.3163 8.48271 27.8229C8.27286 28.3295 8.16486 28.8725 8.16486 29.4208C8.16486 29.9691 8.27286 30.5121 8.48271 31.0187C8.69255 31.5253 9.00013 31.9856 9.38787 32.3734L11.901 34.8865C12.0407 35.0255 12.1515 35.1908 12.2269 35.3728C12.3024 35.5549 12.3409 35.7501 12.3404 35.9471V41.6227C12.3409 41.8198 12.3024 42.015 12.2269 42.197C12.1515 42.3791 12.0407 42.5444 11.901 42.6833L9.55019 45.0341C9.16125 45.421 8.85288 45.8811 8.64295 46.3879C8.43302 46.8947 8.32569 47.4382 8.32717 47.9867V49.3245C8.32719 49.6211 8.23921 49.9112 8.07438 50.1579C7.90955 50.4045 7.67527 50.5968 7.40116 50.7103C7.12706 50.8239 6.82544 50.8536 6.53445 50.7957C6.24347 50.7378 5.97619 50.5949 5.76642 50.3851L3.92716 48.5458C1.89796 39.6887 3.1401 30.3966 7.42445 22.3836ZM14.9727 61.3132L9.24609 60.8728C7.65284 58.4858 6.34046 55.9229 5.335 53.2349C5.80224 53.4169 6.29925 53.5104 6.80068 53.5106C7.35845 53.509 7.91043 53.3974 8.42499 53.1822C9.19311 52.8735 9.85013 52.34 10.3101 51.6517C10.77 50.9634 11.0114 50.1522 11.0026 49.3245V47.9867C11.0021 47.7897 11.0406 47.5945 11.1161 47.4124C11.1915 47.2303 11.3023 47.0651 11.442 46.9261L13.7928 44.5753C14.1818 44.1884 14.4901 43.7283 14.7001 43.2215C14.91 42.7147 15.0173 42.1713 15.0158 41.6227V35.9471C15.0173 35.3986 14.91 34.8552 14.7001 34.3484C14.4901 33.8415 14.1818 33.3814 13.7928 32.9946L11.2797 30.4814C11.1404 30.3421 11.0299 30.1768 10.9545 29.9948C10.8791 29.8128 10.8403 29.6178 10.8403 29.4208C10.8403 29.2238 10.8791 29.0288 10.9545 28.8468C11.0299 28.6648 11.1404 28.4995 11.2797 28.3602C11.6674 27.9724 11.975 27.5121 12.1848 27.0055C12.3947 26.4989 12.5027 25.9559 12.5027 25.4076C12.5027 24.8593 12.3947 24.3163 12.1848 23.8097C11.975 23.3031 11.6674 22.8428 11.2797 22.455L8.82593 20.0013C10.0572 18.0779 11.4609 16.2705 13.0195 14.6013L15.7659 17.3477C16.1997 17.7838 16.7156 18.1295 17.2839 18.3649C17.8522 18.6003 18.4615 18.7206 19.0765 18.7189H22.9947C23.6098 18.7206 24.2191 18.6003 24.7874 18.3649C25.3556 18.1295 25.8716 17.7838 26.3054 17.3477L27.6431 16.01C28.0197 15.6343 28.53 15.4232 29.062 15.4232C29.5941 15.4232 30.1044 15.6343 30.481 16.01C30.9147 16.4461 31.4307 16.7918 31.999 17.0272C32.5672 17.2625 33.1765 17.3829 33.7916 17.3812H34.4129C35.6543 17.3798 36.8444 16.8861 37.7221 16.0083C38.5999 15.1306 39.0936 13.9405 39.095 12.6992V8.06462C39.0943 7.80102 39.1458 7.5399 39.2467 7.29637C39.3476 7.05284 39.4958 6.83175 39.6827 6.64589L43.5341 2.7944C44.7426 2.89283 45.9384 3.04806 47.1214 3.26008V8.47612C47.119 9.35487 47.2909 10.2253 47.6272 11.0372C47.9635 11.8491 48.4574 12.5862 49.0805 13.2059L51.2968 15.422C51.9164 16.0451 52.6535 16.5391 53.4654 16.8754C54.2772 17.2117 55.1477 17.3836 56.0265 17.3812H58.2823C58.8095 17.3797 59.3318 17.4829 59.8189 17.6847C60.306 17.8865 60.7483 18.1829 61.12 18.5568C62.3754 19.8093 64.0764 20.5126 65.8497 20.5126C67.623 20.5126 69.3239 19.8091 70.5793 18.5566L70.8632 18.2726C71.8442 19.6311 72.7323 21.0543 73.5216 22.5324L67.2111 28.8429C66.7781 29.2736 66.4348 29.7858 66.2011 30.35C65.9674 30.9142 65.8479 31.5192 65.8496 32.1299V34.7381C65.8479 35.3488 65.9674 35.9537 66.2011 36.518C66.4348 37.0822 66.7781 37.5944 67.2111 38.0251L67.9135 38.7274C68.283 39.0977 68.4905 39.5995 68.4905 40.1225C68.4905 40.6456 68.2831 41.1474 67.9136 41.5177L65.8734 43.5579C65.3328 44.0985 64.934 44.764 64.712 45.4955C64.4901 46.227 64.4521 47.002 64.6012 47.7518C64.7503 48.5015 65.0821 49.2029 65.567 49.7938C66.052 50.3848 66.6752 50.847 67.3814 51.1395C67.9543 51.3792 68.5689 51.5035 69.1899 51.5051C69.7967 51.5032 70.3971 51.3809 70.9562 51.1451C71.5154 50.9094 72.0222 50.565 72.4472 50.132L72.5145 50.0647C72.6973 49.8809 72.9147 49.7352 73.1542 49.636C73.3937 49.5368 73.6504 49.4861 73.9096 49.4868H76.7042C75.801 52.9995 74.3895 56.3615 72.5143 59.4662L65.5254 60.0038C64.9481 60.0488 64.368 59.968 63.8249 59.7671C63.2818 59.5662 62.7888 59.25 62.3798 58.8401L61.8364 58.2968V25.4076C61.8352 24.3436 61.412 23.3235 60.6597 22.5712C59.9073 21.8188 58.8872 21.3956 57.8232 21.3944H21.7045C20.6405 21.3956 19.6204 21.8188 18.8681 22.5712C18.1157 23.3235 17.6925 24.3436 17.6913 25.4076V57.5132C17.6928 58.336 17.9471 59.1386 18.4196 59.8122L18.4143 59.8189C18.0061 60.3299 17.4791 60.7333 16.8792 60.9937C16.2793 61.2542 15.6248 61.3639 14.9727 61.3132ZM47.1214 24.0699H52.4723V30.7585H47.1214V24.0699ZM32.614 63.2939C33.6541 63.1189 34.6383 62.7011 35.4867 62.0745C36.3351 61.4479 37.0238 60.6301 37.4969 59.6875L38.9537 56.7737C39.0557 56.5698 39.1039 56.3432 39.0937 56.1154C39.0834 55.8876 39.0151 55.6661 38.8952 55.4722C38.7754 55.2782 38.6079 55.1181 38.4087 55.007C38.2095 54.896 37.9853 54.8377 37.7573 54.8377H25.614C24.6105 54.8353 23.6194 55.0599 22.7149 55.4946C21.8105 55.9293 21.016 56.563 20.391 57.3481L20.3668 57.3784V25.4076C20.3672 25.0529 20.5082 24.7129 20.759 24.4621C21.0098 24.2113 21.3498 24.0703 21.7045 24.0699H44.4459V32.0963C44.4459 32.451 44.5869 32.7913 44.8377 33.0422C45.0886 33.293 45.4289 33.434 45.7836 33.434H53.81C54.1648 33.434 54.5051 33.293 54.7559 33.0422C55.0068 32.7913 55.1478 32.451 55.1478 32.0963V24.0699H57.8232C58.1779 24.0703 58.5179 24.2113 58.7687 24.4621C59.0195 24.7129 59.1606 25.0529 59.161 25.4076V55.8596C58.0969 55.1894 56.8644 54.835 55.6068 54.8377H43.1082C42.8801 54.8377 42.6559 54.896 42.4567 55.007C42.2576 55.1181 42.0901 55.2782 41.9702 55.4722C41.8503 55.6661 41.782 55.8876 41.7718 56.1154C41.7616 56.3432 41.8097 56.5698 41.9117 56.7737L43.3686 59.6875C43.8417 60.6301 44.5304 61.4479 45.3788 62.0745C46.2271 62.7011 47.2113 63.1189 48.2514 63.2939L49.0008 63.4186L40.4327 66.9887L31.8646 63.4186L32.614 63.2939Z" fill="#178275"/>
</svg>
