<svg width="18" height="18" viewBox="0 0 18 18" fill="none" xmlns="http://www.w3.org/2000/svg">
<path fill-rule="evenodd" clip-rule="evenodd" d="M17.3333 8.99984C17.3333 11.511 16.2226 13.7627 14.4657 15.2905C13.0025 16.5629 11.0912 17.3332 8.99996 17.3332C6.90873 17.3332 4.99741 16.5629 3.53426 15.2905C1.77733 13.7627 0.666626 11.511 0.666626 8.99984C0.666626 4.39746 4.39759 0.666504 8.99996 0.666504C13.6023 0.666504 17.3333 4.39746 17.3333 8.99984ZM8.99998 14.8332C10.4638 14.8332 11.8018 14.294 12.826 13.4033C12.9439 13.3008 13.0576 13.1936 13.1669 13.082C12.2662 11.6251 10.736 10.6665 8.99998 10.6665C7.26391 10.6665 5.7338 11.6251 4.83304 13.082C4.94234 13.1936 5.05609 13.3008 5.17399 13.4033C6.19819 14.294 7.53611 14.8332 8.99998 14.8332ZM8.99996 8.99984C10.3807 8.99984 11.5 7.88055 11.5 6.49984C11.5 5.11913 10.3807 3.99984 8.99996 3.99984C7.61925 3.99984 6.49996 5.11913 6.49996 6.49984C6.49996 7.88055 7.61925 8.99984 8.99996 8.99984Z" fill="white"/>
</svg>
