<svg width="20" height="20" viewBox="0 0 20 20" fill="none" xmlns="http://www.w3.org/2000/svg">
<ellipse cx="10" cy="13.7498" rx="5" ry="2.08333" stroke="white" stroke-width="1.25" stroke-linejoin="round"/>
<circle cx="10" cy="6.6665" r="2.5" stroke="white" stroke-width="1.25" stroke-linejoin="round"/>
<path fill-rule="evenodd" clip-rule="evenodd" d="M5.37118 11.0513C4.33903 11.0942 3.3909 11.2802 2.6549 11.5746C2.23431 11.7428 1.852 11.9588 1.56462 12.2305C1.27592 12.5036 1.04163 12.876 1.04163 13.3334C1.04163 13.7907 1.27592 14.1632 1.56462 14.4362C1.852 14.708 2.23431 14.9239 2.6549 15.0922C3.07139 15.2588 3.5558 15.3906 4.08493 15.4815C3.67357 15.0378 3.41539 14.542 3.34984 14.0163C3.26946 13.9892 3.19249 13.9609 3.11913 13.9316C2.7857 13.7982 2.55781 13.655 2.42351 13.528C2.29146 13.4031 2.29162 13.3372 2.29163 13.3334L2.29163 13.3334L2.29163 13.3333C2.29162 13.3295 2.29146 13.2636 2.42351 13.1387C2.55781 13.0117 2.7857 12.8685 3.11913 12.7352C3.28827 12.6675 3.47663 12.6055 3.68152 12.5507C4.02626 11.9758 4.61202 11.4633 5.37118 11.0513Z" fill="white"/>
<path fill-rule="evenodd" clip-rule="evenodd" d="M16.6503 14.0163C16.5847 14.542 16.3265 15.0378 15.9152 15.4815C16.4443 15.3906 16.9287 15.2588 17.3452 15.0922C17.7658 14.9239 18.1481 14.708 18.4355 14.4362C18.7242 14.1632 18.9585 13.7907 18.9585 13.3334C18.9585 12.876 18.7242 12.5036 18.4355 12.2305C18.1481 11.9588 17.7658 11.7428 17.3452 11.5746C16.6092 11.2802 15.6611 11.0942 14.6289 11.0513C15.3881 11.4633 15.9738 11.9758 16.3186 12.5507C16.5235 12.6055 16.7118 12.6675 16.881 12.7352C17.2144 12.8685 17.4423 13.0117 17.5766 13.1387C17.7086 13.2636 17.7085 13.3295 17.7085 13.3333V13.3334V13.3334C17.7085 13.3372 17.7086 13.4031 17.5766 13.528C17.4423 13.655 17.2144 13.7982 16.881 13.9316C16.8076 13.9609 16.7306 13.9892 16.6503 14.0163Z" fill="white"/>
<path fill-rule="evenodd" clip-rule="evenodd" d="M13.762 8.46031C13.5788 8.84398 13.3386 9.19524 13.0524 9.50313C13.3822 9.68704 13.7622 9.79183 14.1667 9.79183C15.4324 9.79183 16.4584 8.76582 16.4584 7.50016C16.4584 6.23451 15.4324 5.2085 14.1667 5.2085C14.0798 5.2085 13.9941 5.21333 13.9097 5.22275C14.053 5.61076 14.1403 6.02596 14.1616 6.45851C14.1633 6.4585 14.165 6.4585 14.1667 6.4585C14.742 6.4585 15.2084 6.92487 15.2084 7.50016C15.2084 8.07546 14.742 8.54183 14.1667 8.54183C14.0232 8.54183 13.8865 8.5128 13.762 8.46031Z" fill="white"/>
<path fill-rule="evenodd" clip-rule="evenodd" d="M6.09033 5.22275C6.00595 5.21333 5.92019 5.2085 5.83329 5.2085C4.56764 5.2085 3.54163 6.23451 3.54163 7.50016C3.54163 8.76582 4.56764 9.79183 5.83329 9.79183C6.23777 9.79183 6.61778 9.68704 6.94764 9.50313C6.66141 9.19524 6.4212 8.84398 6.23796 8.46031C6.11355 8.5128 5.97681 8.54183 5.83329 8.54183C5.258 8.54183 4.79163 8.07546 4.79163 7.50016C4.79163 6.92487 5.258 6.4585 5.83329 6.4585C5.835 6.4585 5.83671 6.4585 5.83841 6.45851C5.85971 6.02596 5.94696 5.61076 6.09033 5.22275Z" fill="white"/>
</svg>
