<svg width="20" height="20" viewBox="0 0 20 20" fill="none" xmlns="http://www.w3.org/2000/svg">
<ellipse cx="10" cy="13.7501" rx="5" ry="2.08333" stroke="#999999" stroke-width="1.25" stroke-linejoin="round"/>
<circle cx="10" cy="6.66675" r="2.5" stroke="#999999" stroke-width="1.25" stroke-linejoin="round"/>
<path fill-rule="evenodd" clip-rule="evenodd" d="M5.3713 11.0513C4.33916 11.0942 3.39103 11.2802 2.65502 11.5746C2.23443 11.7428 1.85212 11.9588 1.56474 12.2305C1.27604 12.5036 1.04175 12.876 1.04175 13.3334C1.04175 13.7907 1.27604 14.1632 1.56474 14.4362C1.85212 14.708 2.23443 14.9239 2.65502 15.0922C3.07151 15.2588 3.55593 15.3906 4.08505 15.4815C3.6737 15.0378 3.41551 14.542 3.34996 14.0163C3.26959 13.9892 3.19261 13.9609 3.11926 13.9316C2.78582 13.7982 2.55794 13.655 2.42363 13.528C2.29158 13.4031 2.29174 13.3372 2.29175 13.3334L2.29175 13.3334L2.29175 13.3333C2.29174 13.3295 2.29158 13.2636 2.42363 13.1387C2.55794 13.0117 2.78582 12.8685 3.11926 12.7352C3.28839 12.6675 3.47675 12.6055 3.68164 12.5507C4.02639 11.9758 4.61214 11.4633 5.3713 11.0513Z" fill="#999999"/>
<path fill-rule="evenodd" clip-rule="evenodd" d="M16.6503 14.0163C16.5847 14.542 16.3265 15.0378 15.9152 15.4815C16.4443 15.3906 16.9287 15.2588 17.3452 15.0922C17.7658 14.9239 18.1481 14.708 18.4355 14.4362C18.7242 14.1632 18.9585 13.7907 18.9585 13.3334C18.9585 12.876 18.7242 12.5036 18.4355 12.2305C18.1481 11.9588 17.7658 11.7428 17.3452 11.5746C16.6092 11.2802 15.6611 11.0942 14.6289 11.0513C15.3881 11.4633 15.9738 11.9758 16.3186 12.5507C16.5235 12.6055 16.7118 12.6675 16.881 12.7352C17.2144 12.8685 17.4423 13.0117 17.5766 13.1387C17.7086 13.2636 17.7085 13.3295 17.7085 13.3333V13.3334V13.3334C17.7085 13.3372 17.7086 13.4031 17.5766 13.528C17.4423 13.655 17.2144 13.7982 16.881 13.9316C16.8076 13.9609 16.7306 13.9892 16.6503 14.0163Z" fill="#999999"/>
<path fill-rule="evenodd" clip-rule="evenodd" d="M13.7619 8.46006C13.5787 8.84374 13.3385 9.195 13.0522 9.50288C13.3821 9.6868 13.7621 9.79159 14.1666 9.79159C15.4322 9.79159 16.4583 8.76557 16.4583 7.49992C16.4583 6.23427 15.4322 5.20825 14.1666 5.20825C14.0797 5.20825 13.9939 5.21309 13.9096 5.22251C14.0529 5.61052 14.1402 6.02572 14.1615 6.45826C14.1632 6.45826 14.1649 6.45825 14.1666 6.45825C14.7419 6.45825 15.2083 6.92462 15.2083 7.49992C15.2083 8.07522 14.7419 8.54159 14.1666 8.54159C14.0231 8.54159 13.8863 8.51256 13.7619 8.46006Z" fill="#999999"/>
<path fill-rule="evenodd" clip-rule="evenodd" d="M6.09045 5.22251C6.00607 5.21309 5.92031 5.20825 5.83341 5.20825C4.56776 5.20825 3.54175 6.23427 3.54175 7.49992C3.54175 8.76557 4.56776 9.79159 5.83341 9.79159C6.23789 9.79159 6.6179 9.6868 6.94776 9.50288C6.66153 9.195 6.42132 8.84374 6.23808 8.46006C6.11367 8.51256 5.97693 8.54159 5.83341 8.54159C5.25812 8.54159 4.79175 8.07522 4.79175 7.49992C4.79175 6.92462 5.25812 6.45825 5.83341 6.45825C5.83512 6.45825 5.83683 6.45826 5.83853 6.45826C5.85983 6.02572 5.94709 5.61052 6.09045 5.22251Z" fill="#999999"/>
</svg>
