<svg width="81" height="80" viewBox="0 0 81 80" fill="none" xmlns="http://www.w3.org/2000/svg">
<path d="M79.5438 41.727C72.1867 37.0926 66.3756 35.026 60.7018 35.026C56.9291 35.026 53.095 35.9412 48.7868 37.916C45.6724 35.8067 42.2555 34.2955 38.6661 33.423C44.6523 30.6316 48.8118 24.5569 48.8118 17.528C48.8118 7.86307 40.9489 0 31.2838 0C21.6189 0 13.756 7.86307 13.756 17.528C13.756 24.5613 17.9206 30.6392 23.9127 33.4282C11.0057 36.5815 1.04039 47.8089 0.00937357 61.5529C-0.0603877 62.4847 0.261708 63.4094 0.893174 64.0899C1.52464 64.7705 2.42274 65.1608 3.35713 65.1608H43.0532C44.2875 67.6504 46.1418 69.8263 48.555 71.5608L59.9682 79.7637C60.1874 79.9213 60.4446 80 60.7018 80C60.959 80 61.2162 79.9213 61.4354 79.7637L72.8486 71.5608C77.5446 68.1857 80.1308 63.1417 80.1308 57.3584V42.7905C80.1308 42.3588 79.9091 41.9572 79.5438 41.727ZM16.2697 17.528C16.2697 9.24934 23.005 2.51392 31.2836 2.51392C39.5624 2.51392 46.2977 9.24918 46.2977 17.528C46.2977 25.8044 39.5662 32.5381 31.2907 32.5419C31.2885 32.5419 31.2861 32.5419 31.284 32.5419C31.2819 32.5419 31.2799 32.5419 31.2777 32.5419C23.0015 32.5386 16.2697 25.8046 16.2697 17.528ZM3.35713 62.647C3.11626 62.647 2.89567 62.5521 2.73588 62.3801C2.57609 62.208 2.498 61.981 2.51607 61.7409C3.63853 46.7795 16.2715 35.0591 31.2775 35.056H31.2836H31.2906C36.5736 35.0572 41.6727 36.4906 46.1627 39.2184C44.784 39.9522 43.3542 40.7858 41.8597 41.7273C41.4942 41.9575 41.2727 42.3591 41.2727 42.7908V57.3587C41.2727 59.2075 41.5382 60.9802 42.0512 62.6474H3.35713V62.647ZM77.6169 57.3584C77.6169 62.3825 75.4606 66.5876 71.3813 69.5196L60.7017 77.1954L50.0221 69.5196C45.9428 66.5876 43.7865 62.3823 43.7865 57.3584V43.488C50.4384 39.3782 55.6765 37.5401 60.7017 37.5401C65.7267 37.5401 70.9648 39.3782 77.6169 43.4878V57.3584ZM46.6107 44.3553C46.224 44.5804 45.9861 44.994 45.9861 45.4415V57.3584C45.9861 61.6446 47.8257 65.2323 51.3057 67.7335L59.9679 73.9592C60.1871 74.1168 60.4443 74.1955 60.7015 74.1955C60.9587 74.1955 61.2159 74.1168 61.4351 73.9592L70.0973 67.7335C73.5777 65.2323 75.4172 61.6446 75.4172 57.3584V45.4415C75.4172 44.994 75.1793 44.5804 74.7927 44.3553C69.3846 41.2063 64.9072 39.7396 60.7017 39.7396C56.4962 39.7396 52.0188 41.2063 46.6107 44.3553ZM72.9033 57.3584C72.9033 60.8505 71.4657 63.6543 68.6303 65.6922L60.7017 71.3908L52.7731 65.6922C49.9379 63.6543 48.5002 60.8505 48.5002 57.3584V46.1694C53.2247 43.5002 57.116 42.2535 60.7018 42.2535C64.2876 42.2535 68.1789 43.5002 72.9035 46.1694V57.3584H72.9033ZM56.8577 54.3349C56.1334 53.6304 55.1767 53.253 54.1674 53.2638C53.1568 53.2778 52.2123 53.6846 51.5076 54.4089C50.803 55.1332 50.4226 56.0887 50.4366 57.0993C50.4505 58.1097 50.8572 59.0542 51.5807 59.7581L55.9505 64.0171C56.6816 64.7286 57.6344 65.0835 58.5873 65.0833C59.5618 65.0833 60.5361 64.7122 61.2727 63.9716L69.8663 55.2973C70.5789 54.5807 70.9698 53.6296 70.967 52.619C70.9641 51.6084 70.568 50.6594 69.8516 49.9469C68.3723 48.4761 65.9724 48.4825 64.5013 49.9616C64.5008 49.9623 64.5002 49.9629 64.4996 49.9634L58.5421 55.9768L56.8577 54.3349ZM59.4504 58.6318L66.2854 51.7329V51.7327C66.7792 51.2384 67.5832 51.2365 68.0789 51.7296C68.3193 51.9685 68.4521 52.2869 68.453 52.6259C68.454 52.965 68.3228 53.2841 68.0821 53.5262L59.4884 62.2005C59.0002 62.6913 58.1995 62.6979 57.7045 62.2162L53.3345 57.957C53.0914 57.7205 52.9549 57.4036 52.9503 57.0644C52.9458 56.7252 53.0732 56.4048 53.3098 56.1618C53.5461 55.9185 53.863 55.7822 54.2023 55.7776C54.2082 55.7774 54.2142 55.7774 54.2203 55.7774C54.5526 55.7774 54.8662 55.9047 55.1041 56.136L57.6804 58.6472C58.1744 59.1291 58.9649 59.1225 59.4504 58.6318Z" fill="#178275"/>
</svg>
