<svg width="22" height="22" viewBox="0 0 22 22" fill="none" xmlns="http://www.w3.org/2000/svg">
<path d="M13 1H5C2.79086 1 1 2.79086 1 5V17C1 19.2091 2.79086 21 5 21H17C19.2091 21 21 19.2091 21 17V9M18 1V7M21 4L15 4M21 13L18.061 10.8839C16.5338 9.78434 14.4467 9.89798 13.0479 11.1569L8.95209 14.8431C7.55331 16.102 5.4662 16.2157 3.93901 15.1161L1 13M10 7.5C10 8.88071 8.88071 10 7.5 10C6.11929 10 5 8.88071 5 7.5C5 6.11929 6.11929 5 7.5 5C8.88071 5 10 6.11929 10 7.5Z" stroke="#6AD871" stroke-width="1.5" stroke-linecap="round"/>
</svg>
