<svg width="126" height="126" viewBox="0 0 126 126" fill="none" xmlns="http://www.w3.org/2000/svg">
<g clip-path="url(#clip0_2075_53626)">
<path d="M44.2496 98.7833L25.4518 109.037C24.3487 109.638 23.3574 110.378 22.4349 111.184C33.3946 120.424 47.5422 125.999 62.9998 125.999C78.3433 125.999 92.4006 120.508 103.329 111.393C102.321 110.542 101.228 109.776 100.015 109.172L79.8862 99.109C77.2854 97.8085 75.6426 95.1507 75.6426 92.2432V84.3456C76.2084 83.7013 76.855 82.874 77.5469 81.8969C80.2903 78.0218 82.3658 73.7592 83.8041 69.2874C86.3859 68.491 88.2878 66.1065 88.2878 63.2727V54.8425C88.2878 52.9882 87.4628 51.3312 86.1814 50.171V37.9847C86.1814 37.9847 88.6848 19.0205 63.0022 19.0205C37.3196 19.0205 39.8229 37.9847 39.8229 37.9847V50.171C38.5392 51.3312 37.7166 52.9882 37.7166 54.8425V63.2727C37.7166 65.4931 38.8839 67.4473 40.6312 68.5766C42.7376 77.746 48.253 84.3456 48.253 84.3456V92.0482C48.2507 94.8535 46.7149 97.4377 44.2496 98.7833Z" fill="#E7ECED"/>
<path d="M64.0768 0.00938144C29.2889 -0.584958 0.603727 27.135 0.00938765 61.9229C-0.328197 81.6479 8.46327 99.3758 22.4612 111.165C23.3764 110.366 24.3583 109.634 25.4495 109.04L44.2473 98.7863C46.7126 97.4407 48.2484 94.8565 48.2484 92.0464V84.3438C48.2484 84.3438 42.7305 77.7442 40.6266 68.5748C38.8816 67.4455 37.7119 65.4937 37.7119 63.2709V54.8408C37.7119 52.9864 38.5369 51.3294 39.8183 50.1693V37.9829C39.8183 37.9829 37.3149 19.0187 62.9975 19.0187C88.6801 19.0187 86.1768 37.9829 86.1768 37.9829V50.1693C87.4605 51.3294 88.2831 52.9864 88.2831 54.8408V63.2709C88.2831 66.1047 86.3812 68.4892 83.7994 69.2856C82.3611 73.7574 80.2857 78.02 77.5422 81.8951C76.8504 82.8722 76.2037 83.6995 75.6379 84.3438V92.2414C75.6379 95.1489 77.2807 97.8092 79.8815 99.1072L100.011 109.171C101.218 109.774 102.31 110.538 103.315 111.386C116.89 100.065 125.66 83.1385 125.986 64.0768C126.585 29.2889 98.8671 0.603721 64.0768 0.00938144Z" fill="#556080"/>
</g>
<defs>
<clipPath id="clip0_2075_53626">
<rect width="126" height="126" fill="white"/>
</clipPath>
</defs>
</svg>
